<svg width="174" height="44" viewBox="0 0 174 44" fill="none" xmlns="http://www.w3.org/2000/svg">
<path d="M36.6969 17.8858C20.3911 18.8068 0.5 29.0582 0.5 29.0582V41.5H173.5V15.0927C173.5 15.0927 160.09 18.2558 151.143 17.8858C132.963 17.1339 135.091 2.6107 117.075 1.12714C93.147 -0.843286 93.3029 20.7257 69.1677 21.7961C56.2036 22.3711 49.6325 17.1551 36.6969 17.8858Z" fill="url(#paint0_linear_2456_66077)"/>
<path d="M0.5 29.0582C0.5 29.0582 20.3911 18.8068 36.6969 17.8858C49.6325 17.1551 56.2036 22.3711 69.1677 21.7961C93.3029 20.7257 93.147 -0.843286 117.075 1.12714C135.091 2.6107 132.963 17.1339 151.143 17.8858C160.09 18.2558 173.5 15.0927 173.5 15.0927" stroke="#F3A53F" stroke-linecap="round"/>
<path d="M73 24.75H83.5C84.4625 24.75 85.25 23.9625 85.25 23V9C85.25 8.0375 84.4625 7.25 83.5 7.25H73C72.0375 7.25 71.25 8.0375 71.25 9V23C71.25 23.9625 72.0375 24.75 73 24.75ZM73 38.75H83.5C84.4625 38.75 85.25 37.9625 85.25 37V30C85.25 29.0375 84.4625 28.25 83.5 28.25H73C72.0375 28.25 71.25 29.0375 71.25 30V37C71.25 37.9625 72.0375 38.75 73 38.75ZM90.5 38.75H101C101.962 38.75 102.75 37.9625 102.75 37V23C102.75 22.0375 101.962 21.25 101 21.25H90.5C89.5375 21.25 88.75 22.0375 88.75 23V37C88.75 37.9625 89.5375 38.75 90.5 38.75ZM88.75 9V16C88.75 16.9625 89.5375 17.75 90.5 17.75H101C101.962 17.75 102.75 16.9625 102.75 16V9C102.75 8.0375 101.962 7.25 101 7.25H90.5C89.5375 7.25 88.75 8.0375 88.75 9Z" fill="#F3A53F"/>
<defs>
<linearGradient id="paint0_linear_2456_66077" x1="87" y1="1" x2="87" y2="41.5" gradientUnits="userSpaceOnUse">
<stop stop-color="#F8DEBD"/>
<stop offset="1" stop-color="#FBEBD6" stop-opacity="0"/>
</linearGradient>
</defs>
</svg>
