<svg width="174" height="39" viewBox="0 0 174 39" fill="none" xmlns="http://www.w3.org/2000/svg">
<path d="M28.1599 25.2471C17.2076 26.1947 9.48645 25.235 0.5 21.8088V39H173.5V17.5772C164.073 11.2768 163.935 3.79409 149.36 1.44395C133.111 -1.17621 125.856 8.59004 109.128 10.1718C89.7508 12.004 76.9767 4.29568 58.8372 8.3204C42.8386 11.8701 45.2938 23.7645 28.1599 25.2471Z" fill="url(#paint0_linear_1737_271433)"/>
<path d="M0.5 21.8088C9.48645 25.235 17.2076 26.1947 28.1599 25.2471C45.2938 23.7645 42.8386 11.8701 58.8372 8.3204C76.9767 4.29568 89.7508 12.004 109.128 10.1718C125.856 8.59004 133.111 -1.17621 149.36 1.44395C163.935 3.79409 164.073 11.2768 173.5 17.5772" stroke="#0D6EFD"/>
<path d="M84.947 37H73.6137C71.5359 37 69.8359 35.3 69.8359 33.2222V6.77778C69.8359 4.7 71.5359 3 73.6137 3H84.947V37ZM88.7248 37H100.058C102.136 37 103.836 35.3 103.836 33.2222V20H88.7248V37ZM103.836 16.2222V6.77778C103.836 4.7 102.136 3 100.058 3H88.7248V16.2222H103.836Z" fill="#0D6EFD"/>
<defs>
<linearGradient id="paint0_linear_1737_271433" x1="87" y1="7.08302" x2="87" y2="39" gradientUnits="userSpaceOnUse">
<stop stop-color="#D0FBFF"/>
<stop offset="1" stop-color="#DDF2F4" stop-opacity="0"/>
</linearGradient>
</defs>
</svg>
