<svg width="174" height="39" viewBox="0 0 174 39" fill="none" xmlns="http://www.w3.org/2000/svg">
<path d="M28.1599 25.2471C17.2076 26.1947 9.48645 25.235 0.5 21.8088V39H173.5V17.5772C164.073 11.2768 163.935 3.79409 149.36 1.44395C133.111 -1.17621 125.856 8.59004 109.128 10.1718C89.7508 12.004 76.9767 4.29568 58.8372 8.3204C42.8386 11.8701 45.2938 23.7645 28.1599 25.2471Z" fill="url(#paint0_linear_1737_271436)"/>
<path d="M0.5 21.8088C9.48645 25.235 17.2076 26.1947 28.1599 25.2471C45.2938 23.7645 42.8386 11.8701 58.8372 8.3204C76.9767 4.29568 89.7508 12.004 109.128 10.1718C125.856 8.59004 133.111 -1.17621 149.36 1.44395C163.935 3.79409 164.073 11.2768 173.5 17.5772" stroke="#CECECE"/>
<path d="M85.1111 36H73.7778C71.7 36 70 34.3 70 32.2222V5.77778C70 3.7 71.7 2 73.7778 2H85.1111V36ZM88.8889 36H100.222C102.3 36 104 34.3 104 32.2222V19H88.8889V36ZM104 15.2222V5.77778C104 3.7 102.3 2 100.222 2H88.8889V15.2222H104Z" fill="#CECECE"/>
<defs>
<linearGradient id="paint0_linear_1737_271436" x1="87" y1="7.08302" x2="87" y2="39" gradientUnits="userSpaceOnUse">
<stop stop-color="#CECECE"/>
<stop offset="1" stop-color="#DDF2F4" stop-opacity="0"/>
</linearGradient>
</defs>
</svg>
