<svg width="29" height="28" viewBox="0 0 29 28" fill="none" xmlns="http://www.w3.org/2000/svg">
    <path
        d="M0.5 14C0.5 17.713 1.97499 21.274 4.6005 23.8995C7.22601 26.525 10.787 28 14.5 28C18.213 28 21.774 26.525 24.3995 23.8995C27.025 21.274 28.5 17.713 28.5 14C28.5 10.287 27.025 6.72601 24.3995 4.10051C21.774 1.475 18.213 0 14.5 0C10.787 0 7.22601 1.475 4.6005 4.10051C1.97499 6.72601 0.5 10.287 0.5 14ZM19.1305 8.1305C19.2948 7.9662 19.5176 7.87389 19.75 7.87389C19.9824 7.87389 20.2052 7.9662 20.3695 8.1305C20.5338 8.2948 20.6261 8.51764 20.6261 8.75C20.6261 8.98236 20.5338 9.2052 20.3695 9.3695L15.7372 14L20.3695 18.6305C20.4509 18.7119 20.5154 18.8084 20.5594 18.9147C20.6034 19.021 20.6261 19.1349 20.6261 19.25C20.6261 19.3651 20.6034 19.479 20.5594 19.5853C20.5154 19.6916 20.4509 19.7881 20.3695 19.8695C20.2052 20.0338 19.9824 20.1261 19.75 20.1261C19.6349 20.1261 19.521 20.1034 19.4147 20.0594C19.3084 20.0154 19.2119 19.9509 19.1305 19.8695L14.5 15.2372L9.8695 19.8695C9.78815 19.9509 9.69157 20.0154 9.58527 20.0594C9.47898 20.1034 9.36505 20.1261 9.25 20.1261C9.13495 20.1261 9.02102 20.1034 8.91473 20.0594C8.80843 20.0154 8.71185 19.9509 8.6305 19.8695C8.54915 19.7881 8.48461 19.6916 8.44058 19.5853C8.39655 19.479 8.3739 19.3651 8.3739 19.25C8.3739 19.1349 8.39655 19.021 8.44058 18.9147C8.48461 18.8084 8.54915 18.7119 8.6305 18.6305L13.2628 14L8.6305 9.3695C8.54915 9.28815 8.48461 9.19157 8.44058 9.08527C8.39655 8.97898 8.3739 8.86505 8.3739 8.75C8.3739 8.63495 8.39655 8.52102 8.44058 8.41473C8.48461 8.30843 8.54915 8.21185 8.6305 8.1305C8.71185 8.04915 8.80843 7.98461 8.91473 7.94058C9.02102 7.89656 9.13495 7.87389 9.25 7.87389C9.36505 7.87389 9.47898 7.89656 9.58527 7.94058C9.69157 7.98461 9.78815 8.04915 9.8695 8.1305L14.5 12.7628L19.1305 8.1305Z"
        fill="#212529" fill-opacity="0.5" />
</svg>
    