<svg width="29" height="28" viewBox="0 0 29 28" fill="none" xmlns="http://www.w3.org/2000/svg">
    <path
        d="M28.5 14C28.5 17.713 27.025 21.274 24.3995 23.8995C21.774 26.525 18.213 28 14.5 28C10.787 28 7.22601 26.525 4.60051 23.8995C1.975 21.274 0.5 17.713 0.5 14C0.5 10.287 1.975 6.72601 4.60051 4.10051C7.22601 1.475 10.787 0 14.5 0C18.213 0 21.774 1.475 24.3995 4.10051C27.025 6.72601 28.5 10.287 28.5 14ZM21.5525 8.6975C21.4275 8.57293 21.2787 8.47485 21.1149 8.40913C20.9511 8.3434 20.7758 8.31138 20.5993 8.31497C20.4229 8.31857 20.249 8.3577 20.088 8.43004C19.927 8.50239 19.7823 8.60645 19.6625 8.736L13.5848 16.4797L9.922 12.8153C9.67319 12.5834 9.34411 12.4572 9.00409 12.4632C8.66406 12.4692 8.33963 12.6069 8.09916 12.8474C7.85869 13.0879 7.72094 13.4123 7.71494 13.7523C7.70894 14.0924 7.83516 14.4214 8.067 14.6703L12.6975 19.3025C12.8222 19.427 12.9708 19.5251 13.1343 19.591C13.2978 19.6569 13.4728 19.6891 13.6491 19.6859C13.8253 19.6826 13.999 19.6439 14.16 19.572C14.3209 19.5001 14.4657 19.3966 14.5857 19.2675L21.5718 10.535C21.8099 10.2874 21.9415 9.95623 21.9382 9.61268C21.9349 9.26912 21.7971 8.94055 21.5543 8.6975H21.5525Z"
        fill="#6DA544" />
</svg>
    