<svg width="28" height="28" viewBox="0 0 28 28" fill="none" xmlns="http://www.w3.org/2000/svg">
	<rect x="0.664062" width="27.3333" height="27.3333" rx="13.6667" fill="#F2F2F2"/>
	<g clip-path="url(#clip0_4375_65854)">
	<path fill-rule="evenodd" clip-rule="evenodd" d="M6.45312 13.6641C6.45312 15.7526 7.28281 17.7557 8.75966 19.2325C10.2365 20.7094 12.2395 21.5391 14.3281 21.5391C16.4167 21.5391 18.4197 20.7094 19.8966 19.2325C21.3734 17.7557 22.2031 15.7526 22.2031 13.6641C22.2031 11.5755 21.3734 9.57245 19.8966 8.0956C18.4197 6.61875 16.4167 5.78906 14.3281 5.78906C12.2395 5.78906 10.2365 6.61875 8.75966 8.0956C7.28281 9.57245 6.45312 11.5755 6.45312 13.6641ZM23.3281 13.6641C23.3281 16.051 22.3799 18.3402 20.6921 20.028C19.0043 21.7159 16.7151 22.6641 14.3281 22.6641C11.9412 22.6641 9.65199 21.7159 7.96416 20.028C6.27634 18.3402 5.32813 16.051 5.32812 13.6641C5.32812 11.2771 6.27634 8.98793 7.96416 7.3001C9.65199 5.61227 11.9412 4.66406 14.3281 4.66406C16.7151 4.66406 19.0043 5.61227 20.6921 7.3001C22.3799 8.98793 23.3281 11.2771 23.3281 13.6641ZM10.3906 13.1016C10.2414 13.1016 10.0984 13.1608 9.99288 13.2663C9.88739 13.3718 9.82812 13.5149 9.82812 13.6641C9.82812 13.8132 9.88739 13.9563 9.99288 14.0618C10.0984 14.1673 10.2414 14.2266 10.3906 14.2266H16.9078L14.4924 16.6408C14.4401 16.6931 14.3986 16.7552 14.3703 16.8235C14.342 16.8919 14.3274 16.9651 14.3274 17.0391C14.3274 17.113 14.342 17.1863 14.3703 17.2546C14.3986 17.3229 14.4401 17.385 14.4924 17.4373C14.5447 17.4896 14.6068 17.5311 14.6751 17.5594C14.7434 17.5877 14.8167 17.6023 14.8906 17.6023C14.9646 17.6023 15.0378 17.5877 15.1062 17.5594C15.1745 17.5311 15.2366 17.4896 15.2889 17.4373L18.6639 14.0623C18.7163 14.0101 18.7578 13.948 18.7862 13.8797C18.8145 13.8113 18.8291 13.7381 18.8291 13.6641C18.8291 13.5901 18.8145 13.5168 18.7862 13.4485C18.7578 13.3801 18.7163 13.3181 18.6639 13.2658L15.2889 9.89081C15.2366 9.83851 15.1745 9.79703 15.1062 9.76872C15.0378 9.74042 14.9646 9.72585 14.8906 9.72585C14.8167 9.72585 14.7434 9.74042 14.6751 9.76872C14.6068 9.79703 14.5447 9.83851 14.4924 9.89081C14.4401 9.94311 14.3986 10.0052 14.3703 10.0735C14.342 10.1419 14.3274 10.2151 14.3274 10.2891C14.3274 10.363 14.342 10.4363 14.3703 10.5046C14.3986 10.5729 14.4401 10.635 14.4924 10.6873L16.9078 13.1016H10.3906Z" fill="#212529"/>
	</g>
	<defs>
	<clipPath id="clip0_4375_65854">
	<rect width="18" height="18" fill="white" transform="translate(5.32812 4.66406)"/>
	</clipPath>
	</defs>
</svg>