<svg viewBox="0 0 15 22" fill="none" xmlns="http://www.w3.org/2000/svg">
<path fill-rule="evenodd" clip-rule="evenodd" d="M7.49997 0.5C7.69888 0.5 7.88965 0.579018 8.0303 0.71967C8.17095 0.860322 8.24997 1.05109 8.24997 1.25V18.9395L12.969 14.219C13.1098 14.0782 13.3008 13.9991 13.5 13.9991C13.6991 13.9991 13.8901 14.0782 14.031 14.219C14.1718 14.3598 14.2509 14.5508 14.2509 14.75C14.2509 14.9492 14.1718 15.1402 14.031 15.281L8.03097 21.281C7.9613 21.3508 7.87854 21.4063 7.78742 21.4441C7.6963 21.4819 7.59862 21.5013 7.49997 21.5013C7.40132 21.5013 7.30364 21.4819 7.21252 21.4441C7.1214 21.4063 7.03864 21.3508 6.96897 21.281L0.968971 15.281C0.828141 15.1402 0.749023 14.9492 0.749023 14.75C0.749023 14.5508 0.828141 14.3598 0.968971 14.219C1.1098 14.0782 1.30081 13.9991 1.49997 13.9991C1.69913 13.9991 1.89014 14.0782 2.03097 14.219L6.74997 18.9395V1.25C6.74997 1.05109 6.82899 0.860322 6.96964 0.71967C7.11029 0.579018 7.30106 0.5 7.49997 0.5Z" fill="currentColor"/>
</svg>
