<svg width="18" height="11" viewBox="0 0 18 11" fill="none" xmlns="http://www.w3.org/2000/svg">
<path fill-rule="evenodd" clip-rule="evenodd" d="M2.47056 10.7841C2.54023 10.854 2.62299 10.9094 2.71411 10.9472C2.80523 10.985 2.90291 11.0045 3.00156 11.0045C3.10021 11.0045 3.1979 10.985 3.28901 10.9472C3.38013 10.9094 3.46289 10.854 3.53256 10.7841L9.00156 5.31362L14.4706 10.7841C14.6114 10.925 14.8024 11.0041 15.0016 11.0041C15.2007 11.0041 15.3917 10.925 15.5326 10.7841C15.6734 10.6433 15.7525 10.4523 15.7525 10.2531C15.7525 10.054 15.6734 9.86295 15.5326 9.72212L9.53256 3.72212C9.46289 3.65228 9.38013 3.59687 9.28901 3.55906C9.19789 3.52125 9.10021 3.50178 9.00156 3.50178C8.90291 3.50178 8.80523 3.52125 8.71411 3.55906C8.62299 3.59687 8.54023 3.65228 8.47056 3.72212L2.47056 9.72212C2.40072 9.79179 2.3453 9.87456 2.30749 9.96568C2.26968 10.0568 2.25022 10.1545 2.25022 10.2531C2.25022 10.3518 2.26968 10.4495 2.30749 10.5406C2.3453 10.6317 2.40072 10.7145 2.47056 10.7841ZM0.601562 0.803124C0.601562 1.13312 0.871562 1.40312 1.20156 1.40312H16.8016C16.9607 1.40312 17.1133 1.33991 17.2258 1.22739C17.3383 1.11487 17.4016 0.962254 17.4016 0.803124C17.4016 0.643995 17.3383 0.491382 17.2258 0.37886C17.1133 0.266339 16.9607 0.203125 16.8016 0.203125H1.20156C1.04243 0.203125 0.88982 0.266339 0.777298 0.37886C0.664777 0.491382 0.601562 0.643995 0.601562 0.803124Z" fill="white"/>
</svg>
