<svg width="56" height="56" viewBox="0 0 56 56" fill="none" xmlns="http://www.w3.org/2000/svg">
    <rect x="4" y="4" width="48" height="48" rx="24" fill="#FEE4E2" />
    <rect x="4" y="4" width="48" height="48" rx="24" stroke="#FEF3F2" stroke-width="8" />
    <path
        d="M25.5 25.5C25.6326 25.5 25.7598 25.5527 25.8536 25.6464C25.9473 25.7402 26 25.8674 26 26V32C26 32.1326 25.9473 32.2598 25.8536 32.3536C25.7598 32.4473 25.6326 32.5 25.5 32.5C25.3674 32.5 25.2402 32.4473 25.1464 32.3536C25.0527 32.2598 25 32.1326 25 32V26C25 25.8674 25.0527 25.7402 25.1464 25.6464C25.2402 25.5527 25.3674 25.5 25.5 25.5ZM28 25.5C28.1326 25.5 28.2598 25.5527 28.3536 25.6464C28.4473 25.7402 28.5 25.8674 28.5 26V32C28.5 32.1326 28.4473 32.2598 28.3536 32.3536C28.2598 32.4473 28.1326 32.5 28 32.5C27.8674 32.5 27.7402 32.4473 27.6464 32.3536C27.5527 32.2598 27.5 32.1326 27.5 32V26C27.5 25.8674 27.5527 25.7402 27.6464 25.6464C27.7402 25.5527 27.8674 25.5 28 25.5ZM31 26C31 25.8674 30.9473 25.7402 30.8536 25.6464C30.7598 25.5527 30.6326 25.5 30.5 25.5C30.3674 25.5 30.2402 25.5527 30.1464 25.6464C30.0527 25.7402 30 25.8674 30 26V32C30 32.1326 30.0527 32.2598 30.1464 32.3536C30.2402 32.4473 30.3674 32.5 30.5 32.5C30.6326 32.5 30.7598 32.4473 30.8536 32.3536C30.9473 32.2598 31 32.1326 31 32V26Z"
        fill="#EA0101" />
    <path fill-rule="evenodd" clip-rule="evenodd"
        d="M34.5 23C34.5 23.2652 34.3946 23.5196 34.2071 23.7071C34.0196 23.8946 33.7652 24 33.5 24H33V33C33 33.5304 32.7893 34.0391 32.4142 34.4142C32.0391 34.7893 31.5304 35 31 35H25C24.4696 35 23.9609 34.7893 23.5858 34.4142C23.2107 34.0391 23 33.5304 23 33V24H22.5C22.2348 24 21.9804 23.8946 21.7929 23.7071C21.6054 23.5196 21.5 23.2652 21.5 23V22C21.5 21.7348 21.6054 21.4804 21.7929 21.2929C21.9804 21.1054 22.2348 21 22.5 21H26C26 20.7348 26.1054 20.4804 26.2929 20.2929C26.4804 20.1054 26.7348 20 27 20H29C29.2652 20 29.5196 20.1054 29.7071 20.2929C29.8946 20.4804 30 20.7348 30 21H33.5C33.7652 21 34.0196 21.1054 34.2071 21.2929C34.3946 21.4804 34.5 21.7348 34.5 22V23ZM24.118 24L24 24.059V33C24 33.2652 24.1054 33.5196 24.2929 33.7071C24.4804 33.8946 24.7348 34 25 34H31C31.2652 34 31.5196 33.8946 31.7071 33.7071C31.8946 33.5196 32 33.2652 32 33V24.059L31.882 24H24.118ZM22.5 23V22H33.5V23H22.5Z"
        fill="#EA0101" />
</svg>
    