<svg width="10" height="18" viewBox="0 0 10 18" fill="none" xmlns="http://www.w3.org/2000/svg">
<path fill-rule="evenodd" clip-rule="evenodd" d="M9.19362 1.05862C9.25182 1.11667 9.298 1.18564 9.32951 1.26158C9.36101 1.33751 9.37723 1.41891 9.37723 1.50112C9.37723 1.58333 9.36101 1.66473 9.32951 1.74066C9.298 1.81659 9.25182 1.88556 9.19362 1.94362L2.13487 9.00112L9.19362 16.0586C9.31097 16.176 9.37691 16.3351 9.37691 16.5011C9.37691 16.6671 9.31097 16.8263 9.19362 16.9436C9.07626 17.061 8.91709 17.1269 8.75112 17.1269C8.58515 17.1269 8.42597 17.061 8.30862 16.9436L0.808617 9.44362C0.750413 9.38556 0.704234 9.31659 0.672726 9.24066C0.641218 9.16473 0.625 9.08333 0.625 9.00112C0.625 8.91891 0.641218 8.83751 0.672726 8.76158C0.704234 8.68564 0.750413 8.61667 0.808617 8.55862L8.30862 1.05862C8.36667 1.00041 8.43564 0.954235 8.51157 0.922727C8.58751 0.891219 8.66891 0.875 8.75112 0.875C8.83333 0.875 8.91473 0.891219 8.99066 0.922727C9.06659 0.954235 9.13556 1.00041 9.19362 1.05862Z" fill="#0D6EFD"/>
</svg>
