<svg viewBox="0 0 24 25" fill="currentColor" xmlns="http://www.w3.org/2000/svg">
<path d="M12.0026 0.835938C10.4705 0.835937 8.95343 1.1377 7.53796 1.72401C6.1225 2.31031 4.83638 3.16968 3.75303 4.25303C1.5651 6.44095 0.335938 9.40841 0.335938 12.5026C0.335938 15.5968 1.5651 18.5643 3.75303 20.7522C4.83638 21.8355 6.1225 22.6949 7.53796 23.2812C8.95343 23.8675 10.4705 24.1693 12.0026 24.1693C15.0968 24.1693 18.0643 22.9401 20.2522 20.7522C22.4401 18.5643 23.6693 15.5968 23.6693 12.5026C23.6693 10.9705 23.3675 9.45343 22.7812 8.03796C22.1949 6.6225 21.3355 5.33638 20.2522 4.25303C19.1688 3.16968 17.8827 2.31031 16.4672 1.72401C15.0518 1.1377 13.5347 0.835938 12.0026 0.835938ZM5.0026 6.66927H19.0026V9.0026H5.0026V6.66927ZM5.0026 11.3359H19.0026V13.6693H5.0026V11.3359ZM5.0026 16.0026H19.0026V18.3359H5.0026V16.0026Z" fill="#212529"/>
</svg>
