<svg viewBox="0 0 33 25" style="scale: 1.5; transform: translateX(-2.5%);" fill="none" xmlns="http://www.w3.org/2000/svg">
<path d="M8.30069 11.7581L6.14415 9.60156L4 11.7581" stroke="white" stroke-width="1.5" stroke-linecap="round" stroke-linejoin="round"/>
<path d="M26.9688 13.2031L29.1253 15.3597L31.2818 13.2031" stroke="white" stroke-width="1.5" stroke-linecap="round" stroke-linejoin="round"/>
<path d="M29.1173 15.3522V12.4768C29.1173 6.13109 23.9738 1 17.6405 1C14.0215 1 10.7867 2.68561 8.67969 5.30073" stroke="white" stroke-width="1.5" stroke-linecap="round" stroke-linejoin="round"/>
<path d="M6.15625 9.60156V12.4769C6.15625 18.8226 11.2997 23.9537 17.633 23.9537C21.252 23.9537 24.4869 22.2681 26.5938 19.653" stroke="white" stroke-width="1.5" stroke-linecap="round" stroke-linejoin="round"/>
<path d="M20.1329 14.2688C20.1329 12.3535 18.5642 12.1352 17.3038 11.9601C15.9302 11.7688 15.1529 11.6032 15.1529 10.4205C15.1529 9.42738 16.1934 9.075 17.0842 9.075C17.5283 9.06064 17.9694 9.15203 18.3711 9.34165C18.7729 9.53127 19.1238 9.81367 19.395 10.1656L20.0408 9.64442C19.7504 9.27101 19.3891 8.95867 18.9775 8.72536C18.566 8.49205 18.1125 8.34237 17.6429 8.28492V7H16.8129V8.25413C15.3126 8.3451 14.3229 9.19203 14.3229 10.4204C14.3229 12.3834 15.9124 12.6044 17.1895 12.7818C18.5393 12.9697 19.3029 13.1314 19.3029 14.2688C19.3029 15.5272 18.0029 15.715 17.2279 15.715C15.8047 15.715 15.2035 15.315 14.6458 14.6244L14 15.1456C14.329 15.5791 14.7545 15.93 15.2428 16.1704C15.7311 16.4108 16.2687 16.534 16.8129 16.5304V17.79H17.6429V16.5264C19.189 16.4001 20.1329 15.5606 20.1329 14.2688Z" fill="white"/>
</svg>
