<svg width="61" height="61" viewBox="0 0 61 61" fill="none" xmlns="http://www.w3.org/2000/svg">
<ellipse cx="30.5" cy="30.0491" rx="30" ry="29.5491" fill="url(#paint0_linear_935_149796)"/>
<ellipse cx="30.5" cy="31.6456" rx="30" ry="28.8566" fill="url(#paint1_linear_935_149796)"/>
<path d="M55.2003 31.8766C55.2003 45.0969 44.0528 55.847 30.2603 55.847C16.4678 55.847 5.32031 45.0969 5.32031 31.8766C5.32031 18.6563 16.4678 7.90625 30.2603 7.90625C44.0528 7.90625 55.2003 18.6563 55.2003 31.8766Z" stroke="white"/>
<g clip-path="url(#clip0_935_149796)">
<path d="M26.75 34.2665C26.864 35.6975 27.995 36.812 30.023 36.944V38H30.923V36.9365C33.023 36.7895 34.25 35.6675 34.25 34.0385C34.25 32.558 33.311 31.7945 31.6325 31.3985L30.923 31.2305V28.355C31.823 28.457 32.396 28.949 32.534 29.63H34.112C33.998 28.2515 32.816 27.173 30.923 27.056V26H30.023V27.0785C28.2305 27.254 27.008 28.3325 27.008 29.858C27.008 31.208 27.917 32.066 29.4275 32.4185L30.023 32.5655V35.6165C29.1005 35.477 28.49 34.9715 28.352 34.2665H26.75ZM30.0155 31.0175C29.1305 30.812 28.6505 30.3935 28.6505 29.7635C28.6505 29.0585 29.168 28.5305 30.023 28.376V31.016L30.0155 31.0175ZM31.0535 32.807C32.129 33.056 32.6255 33.4595 32.6255 34.172C32.6255 34.985 32.0075 35.543 30.923 35.645V32.777L31.0535 32.807Z" fill="white"/>
<path d="M30.5 42.5C27.7152 42.5 25.0445 41.3938 23.0754 39.4246C21.1062 37.4555 20 34.7848 20 32C20 29.2152 21.1062 26.5445 23.0754 24.5754C25.0445 22.6062 27.7152 21.5 30.5 21.5C33.2848 21.5 35.9555 22.6062 37.9246 24.5754C39.8938 26.5445 41 29.2152 41 32C41 34.7848 39.8938 37.4555 37.9246 39.4246C35.9555 41.3938 33.2848 42.5 30.5 42.5ZM30.5 44C33.6826 44 36.7348 42.7357 38.9853 40.4853C41.2357 38.2348 42.5 35.1826 42.5 32C42.5 28.8174 41.2357 25.7652 38.9853 23.5147C36.7348 21.2643 33.6826 20 30.5 20C27.3174 20 24.2652 21.2643 22.0147 23.5147C19.7643 25.7652 18.5 28.8174 18.5 32C18.5 35.1826 19.7643 38.2348 22.0147 40.4853C24.2652 42.7357 27.3174 44 30.5 44Z" fill="white"/>
<path d="M30.5 40.25C28.312 40.25 26.2135 39.3808 24.6664 37.8336C23.1192 36.2865 22.25 34.188 22.25 32C22.25 29.812 23.1192 27.7135 24.6664 26.1664C26.2135 24.6192 28.312 23.75 30.5 23.75C32.688 23.75 34.7865 24.6192 36.3336 26.1664C37.8808 27.7135 38.75 29.812 38.75 32C38.75 34.188 37.8808 36.2865 36.3336 37.8336C34.7865 39.3808 32.688 40.25 30.5 40.25ZM30.5 41C31.6819 41 32.8522 40.7672 33.9442 40.3149C35.0361 39.8626 36.0282 39.1997 36.864 38.364C37.6997 37.5282 38.3626 36.5361 38.8149 35.4442C39.2672 34.3522 39.5 33.1819 39.5 32C39.5 30.8181 39.2672 29.6478 38.8149 28.5558C38.3626 27.4639 37.6997 26.4718 36.864 25.636C36.0282 24.8003 35.0361 24.1374 33.9442 23.6851C32.8522 23.2328 31.6819 23 30.5 23C28.1131 23 25.8239 23.9482 24.136 25.636C22.4482 27.3239 21.5 29.6131 21.5 32C21.5 34.3869 22.4482 36.6761 24.136 38.364C25.8239 40.0518 28.1131 41 30.5 41Z" fill="white"/>
</g>
<defs>
<linearGradient id="paint0_linear_935_149796" x1="-0.940001" y1="34.5604" x2="64.3397" y2="33.6386" gradientUnits="userSpaceOnUse">
<stop stop-color="#D88018"/>
<stop offset="0.498649" stop-color="#FECF98"/>
<stop offset="0.9999" stop-color="#D88018"/>
</linearGradient>
<linearGradient id="paint1_linear_935_149796" x1="30.5" y1="2.78906" x2="28.0214" y2="60.5108" gradientUnits="userSpaceOnUse">
<stop offset="0.0538197" stop-color="#FEAE4F"/>
<stop offset="1" stop-color="#F89F36"/>
</linearGradient>
<clipPath id="clip0_935_149796">
<rect width="24" height="24" fill="white" transform="translate(18.5 20)"/>
</clipPath>
</defs>
</svg>
