<svg width="20" height="21" viewBox="0 0 20 21" fill="none" xmlns="http://www.w3.org/2000/svg">
<g id="currency-dollar">
<path id="Vector" d="M5 13.9762C5.185 16.06 6.89125 17.5388 9.48875 17.73V19.25H10.7925V17.73C13.63 17.5063 15.39 15.9325 15.39 13.605C15.39 11.6175 14.2063 10.4675 11.695 9.82L10.7925 9.58625V4.83375C12.195 4.97125 13.1413 5.72625 13.38 6.85375H15.2175C15.01 4.85375 13.2925 3.41875 10.7925 3.26V1.75H9.48875V3.29125C7.065 3.57875 5.40125 5.13125 5.40125 7.23625C5.40125 9.05375 6.60875 10.34 8.7275 10.8825L9.49 11.085V16.1237C8.05375 15.9112 7.065 15.1237 6.82625 13.9762H5ZM9.23875 9.18125C7.935 8.8525 7.23875 8.15 7.23875 7.16125C7.23875 5.98125 8.11875 5.11 9.48875 4.87625V9.245L9.23875 9.1825V9.18125ZM11.2275 11.5213C12.8363 11.925 13.5425 12.595 13.5425 13.7325C13.5425 15.1038 12.51 16.0175 10.7925 16.1562V11.4125L11.2275 11.52V11.5213Z" fill="#212529"/>
</g>
</svg>
