<svg width="18" height="18" viewBox="0 0 18 18" fill="none" xmlns="http://www.w3.org/2000/svg">
<g id="currency-dollar">
<path id="Vector" d="M4.5 12.1286C4.6665 14.004 6.20213 15.3349 8.53988 15.507V16.875H9.71325V15.507C12.267 15.3056 13.851 13.8892 13.851 11.7945C13.851 10.0058 12.7856 8.97075 10.5255 8.388L9.71325 8.17763V3.90037C10.9755 4.02413 11.8271 4.70363 12.042 5.71838H13.6957C13.509 3.91838 11.9632 2.62687 9.71325 2.484V1.125H8.53988V2.51213C6.3585 2.77088 4.86113 4.16812 4.86113 6.06262C4.86113 7.69837 5.94787 8.856 7.85475 9.34425L8.541 9.5265V14.0614C7.24837 13.8701 6.3585 13.1614 6.14363 12.1286H4.5ZM8.31487 7.81313C7.1415 7.51725 6.51487 6.885 6.51487 5.99512C6.51487 4.93313 7.30688 4.149 8.53988 3.93862V7.8705L8.31487 7.81425V7.81313ZM10.1048 9.91913C11.5526 10.2825 12.1882 10.8855 12.1882 11.9093C12.1882 13.1434 11.259 13.9657 9.71325 14.0906V9.82125L10.1048 9.918V9.91913Z" fill="#212529"/>
</g>
</svg>
