<svg width="56" height="56" viewBox="0 0 56 56" fill="none" xmlns="http://www.w3.org/2000/svg">
    <rect x="4" y="4" width="48" height="48" rx="24" fill="#FEE4E2" />
    <rect x="4" y="4" width="48" height="48" rx="24" stroke="#FEF3F2" stroke-width="8" />
    <g clip-path="url(#clip0_978_52202)">
        <path
            d="M28 38.5C25.2152 38.5 22.5445 37.3938 20.5754 35.4246C18.6062 33.4555 17.5 30.7848 17.5 28C17.5 25.2152 18.6062 22.5445 20.5754 20.5754C22.5445 18.6062 25.2152 17.5 28 17.5C30.7848 17.5 33.4555 18.6062 35.4246 20.5754C37.3938 22.5445 38.5 25.2152 38.5 28C38.5 30.7848 37.3938 33.4555 35.4246 35.4246C33.4555 37.3938 30.7848 38.5 28 38.5ZM28 40C31.1826 40 34.2348 38.7357 36.4853 36.4853C38.7357 34.2348 40 31.1826 40 28C40 24.8174 38.7357 21.7652 36.4853 19.5147C34.2348 17.2643 31.1826 16 28 16C24.8174 16 21.7652 17.2643 19.5147 19.5147C17.2643 21.7652 16 24.8174 16 28C16 31.1826 17.2643 34.2348 19.5147 36.4853C21.7652 38.7357 24.8174 40 28 40Z"
            fill="#D80027" />
        <path
            d="M22.969 22.969C23.0387 22.8992 23.1214 22.8437 23.2125 22.8059C23.3037 22.7681 23.4013 22.7487 23.5 22.7487C23.5987 22.7487 23.6963 22.7681 23.7875 22.8059C23.8786 22.8437 23.9613 22.8992 24.031 22.969L28 26.9395L31.969 22.969C32.0387 22.8993 32.1215 22.844 32.2126 22.8062C32.3037 22.7685 32.4014 22.7491 32.5 22.7491C32.5986 22.7491 32.6963 22.7685 32.7874 22.8062C32.8785 22.844 32.9613 22.8993 33.031 22.969C33.1007 23.0387 33.156 23.1215 33.1938 23.2126C33.2315 23.3037 33.2509 23.4014 33.2509 23.5C33.2509 23.5986 33.2315 23.6963 33.1938 23.7874C33.156 23.8785 33.1007 23.9613 33.031 24.031L29.0605 28L33.031 31.969C33.1007 32.0387 33.156 32.1215 33.1938 32.2126C33.2315 32.3037 33.2509 32.4014 33.2509 32.5C33.2509 32.5986 33.2315 32.6963 33.1938 32.7874C33.156 32.8785 33.1007 32.9613 33.031 33.031C32.9613 33.1007 32.8785 33.156 32.7874 33.1938C32.6963 33.2315 32.5986 33.2509 32.5 33.2509C32.4014 33.2509 32.3037 33.2315 32.2126 33.1938C32.1215 33.156 32.0387 33.1007 31.969 33.031L28 29.0605L24.031 33.031C23.9613 33.1007 23.8785 33.156 23.7874 33.1938C23.6963 33.2315 23.5986 33.2509 23.5 33.2509C23.4014 33.2509 23.3037 33.2315 23.2126 33.1938C23.1215 33.156 23.0387 33.1007 22.969 33.031C22.8993 32.9613 22.844 32.8785 22.8062 32.7874C22.7685 32.6963 22.7491 32.5986 22.7491 32.5C22.7491 32.4014 22.7685 32.3037 22.8062 32.2126C22.844 32.1215 22.8993 32.0387 22.969 31.969L26.9395 28L22.969 24.031C22.8992 23.9613 22.8437 23.8786 22.8059 23.7875C22.7681 23.6963 22.7487 23.5987 22.7487 23.5C22.7487 23.4013 22.7681 23.3037 22.8059 23.2125C22.8437 23.1214 22.8992 23.0387 22.969 22.969Z"
            fill="#D80027" />
    </g>
    <defs>
        <clipPath id="clip0_978_52202">
            <rect width="24" height="24" fill="white" transform="translate(16 16)" />
        </clipPath>
    </defs>
</svg>
    