<svg width="16" height="16" viewBox="0 0 16 16" fill="none" xmlns="http://www.w3.org/2000/svg">
<path d="M0.6875 0.6875C0.6875 0.538316 0.746763 0.395242 0.852252 0.289752C0.957742 0.184263 1.10082 0.125 1.25 0.125H14.75C14.8992 0.125 15.0423 0.184263 15.1477 0.289752C15.2532 0.395242 15.3125 0.538316 15.3125 0.6875V2.9375C15.3125 3.07622 15.2612 3.21004 15.1685 3.31325L10.25 8.7785V14.1875C10.2499 14.3055 10.2127 14.4205 10.1437 14.5162C10.0746 14.6119 9.97721 14.6835 9.86525 14.7207L6.49025 15.8457C6.40573 15.8739 6.31574 15.8816 6.22768 15.8681C6.13961 15.8547 6.056 15.8205 5.98372 15.7685C5.91144 15.7164 5.85256 15.6479 5.81192 15.5686C5.77129 15.4894 5.75007 15.4016 5.75 15.3125V8.7785L0.8315 3.31325C0.738809 3.21004 0.687525 3.07622 0.6875 2.9375V0.6875ZM1.8125 1.25V2.7215L6.731 8.18675C6.82369 8.28996 6.87498 8.42378 6.875 8.5625V14.5317L9.125 13.7825V8.5625C9.12502 8.42378 9.17631 8.28996 9.269 8.18675L14.1875 2.7215V1.25H1.8125Z" fill="#343A40"/>
</svg>
