<svg width="26" height="28" viewBox="0 0 26 28" fill="none" xmlns="http://www.w3.org/2000/svg">
<path d="M0.8125 1.8125C0.8125 1.56386 0.911272 1.3254 1.08709 1.14959C1.2629 0.973772 1.50136 0.875 1.75 0.875H24.25C24.4986 0.875 24.7371 0.973772 24.9129 1.14959C25.0887 1.3254 25.1875 1.56386 25.1875 1.8125V5.5625C25.1875 5.7937 25.102 6.01674 24.9475 6.18875L16.75 15.2975V24.3125C16.7499 24.5092 16.6878 24.7008 16.5728 24.8603C16.4577 25.0198 16.2954 25.1391 16.1088 25.2013L10.4838 27.0763C10.3429 27.1232 10.1929 27.136 10.0461 27.1136C9.89935 27.0912 9.76 27.0343 9.63953 26.9475C9.51906 26.8607 9.42093 26.7465 9.35321 26.6144C9.28549 26.4823 9.25011 26.336 9.25 26.1875V15.2975L1.0525 6.18875C0.898015 6.01674 0.812542 5.7937 0.8125 5.5625V1.8125ZM2.6875 2.75V5.2025L10.885 14.3113C11.0395 14.4833 11.125 14.7063 11.125 14.9375V24.8863L14.875 23.6375V14.9375C14.875 14.7063 14.9605 14.4833 15.115 14.3113L23.3125 5.2025V2.75H2.6875Z" fill="white"/>
</svg>
