<svg viewBox="0 0 25 25" fill="none" xmlns="http://www.w3.org/2000/svg">
<path d="M10.7387 6.3515C10.2017 6.4565 9.61373 6.8045 9.15173 7.6205C9.10307 7.70619 9.03802 7.78145 8.96027 7.842C8.88253 7.90254 8.79363 7.94719 8.69863 7.97337C8.60364 7.99956 8.50442 8.00678 8.40663 7.99462C8.30885 7.98246 8.21441 7.95116 8.12873 7.9025C8.04304 7.85385 7.96777 7.78879 7.90723 7.71105C7.84668 7.63331 7.80204 7.5444 7.77586 7.4494C7.74967 7.35441 7.74245 7.25519 7.75461 7.1574C7.76677 7.05962 7.79807 6.96519 7.84673 6.8795C8.50823 5.7155 9.44873 5.075 10.4507 4.88C11.3831 4.70376 12.3474 4.89802 13.1387 5.4215C13.8647 5.9015 14.4512 6.686 14.4692 7.6265C14.4887 8.609 13.8917 9.4955 12.7907 10.1465C12.0437 10.5875 11.7527 10.8875 11.6282 11.087C11.5232 11.255 11.5007 11.408 11.5007 11.75C11.5007 11.9489 11.4217 12.1397 11.2811 12.2803C11.1404 12.421 10.9496 12.5 10.7507 12.5C10.5518 12.5 10.361 12.421 10.2204 12.2803C10.0797 12.1397 10.0007 11.9489 10.0007 11.75C10.0007 11.342 10.0217 10.835 10.3562 10.295C10.6712 9.7895 11.2097 9.3395 12.0287 8.855C12.8312 8.3795 12.9767 7.928 12.9722 7.658C12.9662 7.3475 12.7592 6.968 12.3122 6.6725C11.8494 6.36632 11.286 6.25128 10.7402 6.3515H10.7387ZM11.1242 16.25C11.4226 16.25 11.7087 16.1315 11.9197 15.9205C12.1307 15.7095 12.2492 15.4234 12.2492 15.125C12.2492 14.8266 12.1307 14.5405 11.9197 14.3295C11.7087 14.1185 11.4226 14 11.1242 14C10.8259 14 10.5397 14.1185 10.3287 14.3295C10.1178 14.5405 9.99923 14.8266 9.99923 15.125C9.99923 15.4234 10.1178 15.7095 10.3287 15.9205C10.5397 16.1315 10.8259 16.25 11.1242 16.25ZM10.7492 0.5C9.04896 0.499604 7.37814 0.943844 5.9026 1.78863C4.42705 2.63342 3.19807 3.84939 2.33762 5.31587C1.47718 6.78234 1.01518 8.44833 0.997481 10.1485C0.979782 11.8487 1.407 13.5239 2.23673 15.008L1.04423 18.131C0.944971 18.3906 0.919793 18.6727 0.971503 18.9458C1.02321 19.2188 1.14978 19.4722 1.33708 19.6775C1.52437 19.8829 1.76504 20.0321 2.03223 20.1087C2.29941 20.1852 2.58261 20.186 2.85023 20.111L6.58073 19.0655C7.90215 19.6899 9.34704 20.0092 10.8085 19.9998C12.27 19.9904 13.7107 19.6526 15.024 19.0114C16.3373 18.3701 17.4896 17.4418 18.3958 16.2951C19.3019 15.1484 19.9387 13.8127 20.259 12.3867C20.5793 10.9607 20.5749 9.481 20.2461 8.05694C19.9174 6.63289 19.2727 5.30095 18.3598 4.15966C17.4469 3.01836 16.2891 2.0969 14.972 1.46344C13.6549 0.829974 12.2122 0.50071 10.7507 0.5H10.7492ZM2.50073 10.25C2.50139 8.45215 3.08933 6.70372 4.17509 5.27074C5.26085 3.83777 6.78498 2.79869 8.5156 2.31161C10.2462 1.82452 12.0886 1.9161 13.7624 2.5724C15.4361 3.2287 16.8497 4.4138 17.788 5.94738C18.7263 7.48097 19.138 9.27908 18.9604 11.0681C18.7827 12.8572 18.0256 14.5393 16.804 15.8584C15.5825 17.1776 13.9635 18.0616 12.1933 18.376C10.4232 18.6903 8.59879 18.4179 6.99773 17.6L6.73673 17.465L2.44673 18.6665L3.90023 14.8625L3.70823 14.5475C2.91592 13.2542 2.49894 11.7667 2.50073 10.25ZM15.1952 24.5C13.7917 24.5016 12.4045 24.1994 11.1288 23.6142C9.85309 23.0291 8.71912 22.1748 7.80473 21.11C8.66619 21.3434 9.5525 21.4728 10.4447 21.4955C11.8338 22.4766 13.4931 23.0023 15.1937 23C16.5467 23 17.8217 22.6745 18.9467 22.1L19.2077 21.965L23.4977 23.1665L22.0442 19.3625L22.2362 19.0475C23.0012 17.7965 23.4437 16.3265 23.4437 14.75C23.4461 13.0843 22.9417 11.4573 21.9977 10.085C21.9855 9.19264 21.8672 8.3049 21.6452 7.4405C22.6831 8.35436 23.5141 9.47902 24.0829 10.7395C24.6517 11.9999 24.9452 13.3672 24.9437 14.75C24.9437 16.4765 24.4937 18.0995 23.7062 19.508L24.8987 22.631C24.9978 22.8905 25.0229 23.1723 24.9713 23.4452C24.9196 23.7181 24.7932 23.9713 24.6061 24.1766C24.419 24.3819 24.1786 24.5312 23.9117 24.6079C23.6447 24.6846 23.3617 24.6857 23.0942 24.611L19.3622 23.5655C18.0977 24.1655 16.6832 24.5 15.1922 24.5H15.1952Z" fill="white"/>
</svg>
