<svg width="18" height="19" viewBox="0 0 18 19" fill="none" xmlns="http://www.w3.org/2000/svg">
  <g clip-path="url(#clip0_3515_188542)">
    <path d="M9 17.375C6.91142 17.375 4.90838 16.5453 3.43153 15.0685C1.95468 13.5916 1.125 11.5886 1.125 9.5C1.125 7.41142 1.95468 5.40838 3.43153 3.93153C4.90838 2.45468 6.91142 1.625 9 1.625C11.0886 1.625 13.0916 2.45468 14.5685 3.93153C16.0453 5.40838 16.875 7.41142 16.875 9.5C16.875 11.5886 16.0453 13.5916 14.5685 15.0685C13.0916 16.5453 11.0886 17.375 9 17.375ZM9 18.5C11.3869 18.5 13.6761 17.5518 15.364 15.864C17.0518 14.1761 18 11.8869 18 9.5C18 7.11305 17.0518 4.82387 15.364 3.13604C13.6761 1.44821 11.3869 0.5 9 0.5C6.61305 0.5 4.32387 1.44821 2.63604 3.13604C0.948212 4.82387 0 7.11305 0 9.5C0 11.8869 0.948212 14.1761 2.63604 15.864C4.32387 17.5518 6.61305 18.5 9 18.5Z" fill="#6C757D"/>
    <path d="M10.0463 7.9115L7.47 8.23438L7.37775 8.66187L7.884 8.75525C8.21475 8.834 8.28 8.95325 8.208 9.28288L7.37775 13.1844C7.1595 14.1935 7.49588 14.6683 8.28675 14.6683C8.89988 14.6683 9.612 14.3848 9.93488 13.9955L10.0339 13.5275C9.80887 13.7255 9.48037 13.8043 9.26213 13.8043C8.95275 13.8043 8.84025 13.5871 8.92013 13.2046L10.0463 7.9115ZM10.125 5.5625C10.125 5.86087 10.0065 6.14702 9.7955 6.358C9.58452 6.56897 9.29837 6.6875 9 6.6875C8.70163 6.6875 8.41548 6.56897 8.2045 6.358C7.99353 6.14702 7.875 5.86087 7.875 5.5625C7.875 5.26413 7.99353 4.97798 8.2045 4.767C8.41548 4.55603 8.70163 4.4375 9 4.4375C9.29837 4.4375 9.58452 4.55603 9.7955 4.767C10.0065 4.97798 10.125 5.26413 10.125 5.5625Z" fill="#6C757D"/>
  </g>
  <defs>
    <clipPath id="clip0_3515_188542">
      <rect width="18" height="18" fill="white" transform="translate(0 0.5)"/>
    </clipPath>
  </defs>
</svg>
