<svg width="22" height="21" viewBox="0 0 22 21" fill="none" xmlns="http://www.w3.org/2000/svg">
<g clip-path="url(#clip0_8004_1624)">
<path d="M10.8553 6.84375C9.94778 6.84375 9.07746 7.20425 8.43578 7.84593C7.79409 8.48762 7.43359 9.35793 7.43359 10.2654C7.43359 11.1729 7.79409 12.0432 8.43578 12.6849C9.07746 13.3266 9.94778 13.6871 10.8553 13.6871C11.7627 13.6871 12.6331 13.3266 13.2747 12.6849C13.9164 12.0432 14.2769 11.1729 14.2769 10.2654C14.2769 9.35793 13.9164 8.48762 13.2747 7.84593C12.6331 7.20425 11.7627 6.84375 10.8553 6.84375Z" fill="white"/>
<path fill-rule="evenodd" clip-rule="evenodd" d="M6.74884 0C5.11538 0 3.54881 0.648893 2.39377 1.80393C1.23874 2.95897 0.589844 4.52553 0.589844 6.159L0.589844 14.371C0.589844 16.0045 1.23874 17.571 2.39377 18.7261C3.54881 19.8811 5.11538 20.53 6.74884 20.53H14.9608C16.5943 20.53 18.1609 19.8811 19.3159 18.7261C20.471 17.571 21.1198 16.0045 21.1198 14.371V6.159C21.1198 4.52553 20.471 2.95897 19.3159 1.80393C18.1609 0.648893 16.5943 0 14.9608 0L6.74884 0ZM6.06451 10.265C6.06451 8.99452 6.56921 7.77609 7.46757 6.87772C8.36593 5.97936 9.58437 5.47467 10.8548 5.47467C12.1253 5.47467 13.3438 5.97936 14.2421 6.87772C15.1405 7.77609 15.6452 8.99452 15.6452 10.265C15.6452 11.5355 15.1405 12.7539 14.2421 13.6523C13.3438 14.5506 12.1253 15.0553 10.8548 15.0553C9.58437 15.0553 8.36593 14.5506 7.46757 13.6523C6.56921 12.7539 6.06451 11.5355 6.06451 10.265ZM15.6452 5.47467H17.0138V4.106H15.6452V5.47467Z" fill="white"/>
</g>
<defs>
<clipPath id="clip0_8004_1624">
<rect width="20.53" height="20.53" fill="white" transform="translate(0.589844)"/>
</clipPath>
</defs>
</svg>
