<svg style="overflow: visible; transform: translateX(-10%);" width="44" height="34" viewBox="0 0 44 34" fill="none" xmlns="http://www.w3.org/2000/svg">
<g clip-path="url(#clip0_5688_37524)">
<path d="M29.2861 27.6422C27.7647 27.6422 26.2463 27.6453 24.7249 27.6422C21.8875 27.636 21.828 27.5281 23.2809 24.891C24.8202 22.0966 26.279 19.2499 27.9553 16.548C28.8961 15.0336 28.7591 13.8153 27.9285 12.3873C26.2195 9.46034 24.6296 6.45934 22.9147 3.53235C22.1019 2.14442 22.2061 1.3641 23.924 1.35176C27.6248 1.33017 31.3256 1.33017 35.0264 1.35485C35.9999 1.36102 36.8068 1.75889 37.3189 2.70576C39.0963 5.98744 40.8857 9.26295 42.687 12.5292C43.4492 13.9079 43.4283 15.2403 42.6572 16.6066C40.9542 19.6169 39.2303 22.6179 37.6047 25.6744C36.8425 27.1117 35.8153 27.7378 34.2433 27.6576C32.5939 27.5743 30.9385 27.6391 29.2861 27.6391V27.6422Z" fill="white"/>
<path d="M7.58732 31.4979C5.73841 31.4979 3.88653 31.4794 2.03763 31.5041C0.900297 31.5195 0.358427 31.2542 1.07 29.9773C6.08676 20.9712 11.0916 11.9528 16.0816 2.92817C16.7783 1.66978 17.2457 1.69754 17.9186 2.97135C19.5978 6.15125 21.3276 9.30338 23.108 12.4278C23.8702 13.7663 23.8315 15.0155 23.1229 16.3047C20.6368 20.8232 18.13 25.3262 15.6618 29.854C15.0008 31.0692 14.0719 31.5657 12.741 31.5164C11.0261 31.4516 9.30522 31.501 7.58732 31.501V31.4979Z" fill="white"/>
</g>
<defs>
<clipPath id="clip0_5688_37524">
<rect width="42.5" height="34" fill="white" transform="translate(0.75)"/>
</clipPath>
</defs>
</svg>
