<svg width="166" height="20" viewBox="0 0 166 20" fill="none" xmlns="http://www.w3.org/2000/svg">
<path d="M94.7518 16.815C94.7031 17.0149 94.6585 17.2 94.6112 17.4011C94.1116 17.4011 93.6245 17.4011 93.1373 17.4011C92.0935 17.4011 91.0511 17.4011 90.0072 17.4011C89.8736 17.4011 89.7386 17.4011 89.6064 17.3837C89.0915 17.3126 88.8952 17.1316 88.8716 16.6272C88.834 15.7983 88.827 14.9681 88.8089 14.1379C88.8061 14.0306 88.8089 13.9219 88.8089 13.8106C88.7129 13.7985 88.6572 13.7851 88.6016 13.7851C87.3476 13.7851 86.0936 13.7865 84.8396 13.7811C84.6781 13.7811 84.6044 13.8415 84.5418 13.9769C84.2773 14.5483 83.9976 15.1143 83.7317 15.6857C83.4506 16.2919 83.5828 16.5723 84.269 16.8257C84.2328 17.0082 84.1952 17.1946 84.1548 17.4038C83.864 17.4038 83.5786 17.4038 83.2933 17.4038C82.1646 17.4038 81.0345 17.4052 79.9058 17.4038C79.0944 17.4025 78.8327 16.9947 79.2057 16.2919C81.4117 12.134 83.6218 7.97885 85.8264 3.82097C85.9293 3.62648 86.0268 3.41725 86.0616 3.20533C86.12 2.83917 86.0073 2.71175 85.6329 2.60982C85.5703 2.59238 85.5076 2.5736 85.4214 2.54812C85.4478 2.39253 85.4575 2.23561 85.509 2.09209C85.5299 2.03308 85.6399 1.97138 85.7122 1.9687C86.0087 1.95528 86.3051 1.96333 86.6016 1.96333C88.3719 1.96333 90.1422 1.96199 91.914 1.96333C92.8813 1.96467 93.0747 2.10282 93.1415 3.0189C93.2403 4.36149 93.289 5.70811 93.3572 7.05204C93.4853 9.61249 93.6119 12.1729 93.7386 14.7347C93.7539 15.0392 93.7553 15.3437 93.7776 15.6468C93.8318 16.414 93.9599 16.5696 94.7532 16.8177L94.7518 16.815ZM88.7143 11.1187C88.6837 10.094 88.6419 9.06526 88.6266 8.03652C88.6113 7.01315 88.6238 5.98977 88.6238 5.13271C87.7665 7.03729 86.841 9.09477 85.9293 11.1187H88.7157H88.7143Z" fill="white"/>
<path d="M38.5009 12.0354C38.3603 12.6162 38.2184 13.1876 38.0834 13.7603C37.9317 14.4068 37.7744 15.0519 37.6408 15.7024C37.496 16.4079 37.6032 16.5689 38.3436 16.817C38.3005 17.0048 38.2559 17.1966 38.2072 17.4031H36.2991C35.3805 17.4031 34.462 17.4031 33.5434 17.4031C33.4376 17.4031 33.3332 17.4031 33.2275 17.3991C32.5232 17.3656 32.2379 17.0262 32.3854 16.361C32.5872 15.4516 32.803 14.5449 33.0201 13.6396C33.787 10.446 34.5552 7.25251 35.3193 4.05899C35.3666 3.86183 35.3972 3.66064 35.4251 3.45945C35.4891 2.9994 35.3597 2.78883 34.9171 2.62653C34.8558 2.60373 34.7932 2.58361 34.7389 2.56484C34.732 2.53399 34.7208 2.51521 34.725 2.50046C34.8122 2.14189 35.0493 1.96261 35.4362 1.96261C38.3923 1.96261 41.3498 1.95591 44.306 1.96932C44.8279 1.972 45.3609 2.01224 45.8703 2.12088C46.9183 2.34487 47.4569 2.98465 47.5892 4.00937C47.7144 4.97104 47.5363 5.90053 47.3122 6.82734C47.0533 7.89766 46.6901 8.9331 46.1723 9.91624C45.4458 11.2937 44.2934 12.0153 42.6859 12.0301C41.4041 12.0421 40.1209 12.0354 38.8391 12.0368C38.7347 12.0368 38.6303 12.0368 38.5009 12.0368V12.0354ZM39.2413 8.88213C39.6922 8.88213 40.1863 8.89823 40.6776 8.87811C41.2176 8.85531 41.6602 8.62596 41.9302 8.16591C42.3561 7.44163 42.5816 6.65297 42.5969 5.82006C42.6066 5.27685 42.3686 5.0086 41.8105 4.95361C41.3276 4.90532 40.8377 4.91069 40.3506 4.90935C40.2907 4.90935 40.1905 5.00055 40.1752 5.06493C39.8523 6.35924 39.5391 7.65623 39.2413 8.88213Z" fill="white"/>
<path d="M97.1777 5.55622C97.1944 5.47843 97.2153 5.41673 97.2195 5.3537C97.239 5.10691 97.3809 5.05728 97.6217 5.05862C98.9035 5.07069 100.187 5.0613 101.469 5.06533C102.503 5.06801 102.755 5.37918 102.524 6.34488C102.003 8.52576 101.485 10.7066 100.97 12.8889C100.926 13.0766 100.894 13.2711 100.89 13.4616C100.884 13.7312 100.993 13.9605 101.285 14.037C102.01 14.2274 102.698 14.1107 102.997 13.3945C103.206 12.8942 103.347 12.3644 103.478 11.8373C103.892 10.1715 104.29 8.50161 104.686 6.8331C104.877 6.03237 104.837 5.95726 104.091 5.54549C104.13 5.39259 104.169 5.23432 104.209 5.07203C105.67 5.07203 107.115 5.07069 108.56 5.07472C108.682 5.07472 108.807 5.10288 108.927 5.13105C109.329 5.22628 109.533 5.45027 109.48 5.84996C109.41 6.36902 109.292 6.88272 109.171 7.39374C108.511 10.1768 107.841 12.9573 107.179 15.7404C107.019 16.4123 107.119 16.5988 107.797 16.9099C107.765 17.0588 107.73 17.2171 107.693 17.3928C107.606 17.3968 107.523 17.4062 107.439 17.4062C106.128 17.4062 104.817 17.4116 103.506 17.4022C103.281 17.4008 103.047 17.3646 102.833 17.2975C102.494 17.1902 102.365 16.9582 102.377 16.6135C102.393 16.1749 102.574 15.7927 102.785 15.4185C102.841 15.3205 102.89 15.2186 102.942 15.118L102.86 15.0711C102.81 15.1368 102.756 15.1998 102.71 15.2682C102.409 15.7176 102.119 16.1722 101.811 16.6162C101.549 16.9931 101.182 17.2305 100.718 17.319C99.5925 17.5336 98.4596 17.6114 97.3253 17.4142C96.0824 17.1996 95.5633 16.4915 95.8096 15.2884C96.0755 13.9873 96.4011 12.6984 96.7073 11.4054C97.0734 9.86164 97.4491 8.3192 97.818 6.77542C97.9891 6.05919 97.8889 5.8674 97.1805 5.55488L97.1777 5.55622Z" fill="white"/>
<path d="M163.826 16.915C163.784 17.0813 163.747 17.2315 163.703 17.4018C163.247 17.4018 162.799 17.4018 162.352 17.4018C161.414 17.4018 160.476 17.4018 159.539 17.4018C159.396 17.4018 159.251 17.4018 159.111 17.3764C158.527 17.2717 158.284 16.9445 158.415 16.3879C158.974 14.0085 159.542 11.6304 160.117 9.25507C160.267 8.63675 160.199 8.2773 159.844 8.09221C159.404 7.86285 158.632 7.96881 158.316 8.37119C158.092 8.65553 157.908 9.00426 157.82 9.3503C157.28 11.4976 156.77 13.6517 156.259 15.8057C156.113 16.4214 156.234 16.6051 156.925 16.915C156.889 17.0679 156.852 17.2261 156.809 17.4045C156.373 17.4045 155.944 17.4045 155.514 17.4045C154.548 17.4045 153.581 17.4072 152.615 17.4032C152.444 17.4032 152.27 17.3911 152.103 17.3576C151.708 17.2784 151.498 17.0665 151.541 16.6789C151.602 16.1223 151.709 15.5683 151.839 15.0225C152.489 12.2756 153.152 9.53271 153.812 6.78717C153.819 6.76034 153.823 6.73352 153.829 6.70535C153.967 6.0307 153.859 5.83488 153.211 5.57468C153.196 5.11328 153.244 5.06232 153.692 5.06232C154.937 5.06232 156.181 5.06098 157.424 5.06232C158.512 5.06366 158.818 5.46872 158.48 6.47734C158.38 6.77778 158.234 7.06481 158.11 7.3572C158.132 7.37061 158.156 7.38268 158.178 7.3961C158.22 7.32903 158.274 7.26599 158.301 7.19357C158.494 6.65975 158.861 6.23457 159.221 5.80403C159.599 5.34935 160.089 5.08244 160.686 5.02342C161.696 4.92283 162.711 4.89198 163.717 5.06366C163.959 5.10524 164.199 5.18303 164.424 5.28094C164.913 5.49286 165.156 5.8778 165.207 6.38613C165.278 7.11846 165.052 7.81054 164.888 8.50934C164.324 10.9062 163.751 13.3016 163.186 15.6984C163.013 16.4294 163.102 16.589 163.827 16.9163L163.826 16.915Z" fill="white"/>
<path d="M143.457 17.6473C142.385 17.532 141.307 17.4569 140.243 17.2919C138.646 17.0424 138.018 15.8863 138.074 14.5531C138.149 12.7719 138.596 11.0524 139.176 9.3718C139.461 8.54693 139.811 7.72742 140.25 6.97096C140.902 5.84833 142.015 5.31585 143.294 5.1093C145.265 4.79142 147.24 4.7646 149.191 5.23135C150.537 5.55325 151.156 6.34191 151.198 7.67646C151.232 8.75616 150.988 9.801 150.732 10.8418C150.409 12.1589 150.081 13.476 149.517 14.7234C149.06 15.732 148.409 16.573 147.328 17.0344C146.654 17.3214 145.94 17.4461 145.215 17.5052C144.635 17.5521 144.05 17.5628 143.467 17.5883C143.464 17.6071 143.46 17.6272 143.457 17.646V17.6473ZM143.98 14.6013C144.587 14.6362 145.081 14.3143 145.365 13.6759C145.44 13.5069 145.52 13.3365 145.567 13.1595C145.784 12.3386 146.004 11.5191 146.195 10.6929C146.341 10.0558 146.465 9.41204 146.562 8.76689C146.646 8.21564 146.364 7.83472 145.806 7.7462C145.531 7.70194 145.229 7.70865 144.956 7.76498C144.32 7.89642 143.994 8.36318 143.852 8.92248C143.471 10.414 143.099 11.9081 142.777 13.4117C142.611 14.1829 143.031 14.596 143.982 14.6013H143.98Z" fill="white"/>
<path d="M49.133 5.06469C49.7259 5.06469 50.2896 5.06469 50.8532 5.06469C52.355 5.06469 53.8581 5.05664 55.3598 5.0714C55.8163 5.07542 56.2811 5.10225 56.7279 5.18943C57.9763 5.43488 58.6388 6.50922 58.3382 7.78073C57.7202 10.3921 57.087 13.0009 56.4635 15.611C56.4245 15.7719 56.3911 15.9355 56.3758 16.1005C56.3479 16.3956 56.4802 16.6142 56.7502 16.7604C57.1148 16.9576 57.1134 16.9589 56.9701 17.4069C56.3841 17.4069 55.7926 17.4069 55.2011 17.4069C54.4259 17.4069 53.6507 17.4069 52.8769 17.4069C52.7238 17.4069 52.5693 17.4069 52.419 17.3841C51.8163 17.2956 51.6145 17.0555 51.7189 16.4761C51.7871 16.0992 51.9249 15.7344 52.0418 15.3668C52.0905 15.2139 52.1657 15.0691 52.1712 14.8907C52.142 14.9242 52.1017 14.9524 52.0877 14.9913C51.8219 15.6659 51.3445 16.2078 50.9103 16.7792C50.6069 17.1775 50.2047 17.3841 49.7134 17.4672C48.8853 17.6067 48.0586 17.6282 47.2332 17.4605C46.1017 17.2312 45.4225 16.5793 45.3696 15.4795C45.2861 13.7359 45.7092 12.0875 46.7322 10.6295C47.4044 9.67055 48.4246 9.29098 49.6034 9.28293C50.4649 9.27622 51.325 9.27756 52.1865 9.27488C52.3772 9.27488 52.5693 9.27622 52.76 9.26683C53.3375 9.23867 53.7217 8.77057 53.5908 8.22602C53.5644 8.11738 53.4322 7.99801 53.3181 7.95241C53.1747 7.89607 52.9993 7.89742 52.8393 7.89607C51.8637 7.89205 50.888 7.89339 49.911 7.89339C49.7871 7.89339 49.6619 7.89339 49.538 7.88937C48.8421 7.8612 48.5846 7.55942 48.7183 6.90489C48.8421 6.29998 48.9883 5.70044 49.1302 5.06871L49.133 5.06469ZM52.2186 14.2778C52.4621 13.2906 52.6973 12.3396 52.92 11.4356C52.5665 11.4356 52.1768 11.4209 51.7885 11.4397C51.364 11.4598 50.9451 11.5188 50.6779 11.8997C50.3383 12.3852 50.1587 12.9217 50.156 13.5052C50.1532 13.9398 50.3202 14.1463 50.7628 14.1973C51.2429 14.2523 51.73 14.2523 52.2172 14.2764L52.2186 14.2778Z" fill="white"/>
<path d="M59.643 13.2278C59.7529 13.9413 60.2915 14.113 60.9373 14.113C61.9032 14.113 62.8691 14.113 63.835 14.0795C64.3667 14.0621 64.6088 13.8005 64.5239 13.374C64.4933 13.2198 64.3778 13.0454 64.2456 12.9515C64.0104 12.7838 63.739 12.6578 63.4717 12.5371C62.8844 12.2701 62.2901 12.018 61.6986 11.7578C60.4098 11.1891 60.0382 10.5896 60.1691 9.23087C60.2567 8.31747 60.4892 7.43761 60.8956 6.60201C61.3437 5.68191 62.0925 5.18029 63.1363 5.12127C63.9477 5.07567 64.7605 5.06896 65.5733 5.0636C66.8649 5.05421 68.1564 5.06091 69.448 5.06091H69.796C69.5816 5.86835 69.3923 6.64762 69.1655 7.41615C69.036 7.85474 68.6533 7.98887 68.2219 7.99289C67.3701 8.00094 66.5183 7.99692 65.668 8.00228C65.487 8.00228 65.3033 8.00899 65.1252 8.03581C64.7772 8.08812 64.5629 8.28528 64.5197 8.57231C64.4738 8.87007 64.5573 9.03102 64.9192 9.19331C65.7765 9.57825 66.6478 9.93368 67.4995 10.3267C67.8586 10.4916 68.2135 10.6888 68.5197 10.9316C69.1349 11.4171 69.2295 12.1105 69.1015 12.7999C68.9442 13.6476 68.7507 14.4993 68.4599 15.3121C67.995 16.6091 66.9526 17.2556 65.5608 17.3387C64.503 17.4018 63.4397 17.3897 62.3778 17.4004C61.4217 17.4098 60.4641 17.4058 59.508 17.4004C58.4627 17.3951 58.1816 17.0477 58.4182 16.0713C58.6158 15.2558 58.8163 14.4403 59.0139 13.6248C59.0863 13.3262 59.2964 13.1929 59.6444 13.2251L59.643 13.2278Z" fill="white"/>
<path d="M72.281 7.79805H71.1161C71.2399 7.27631 71.3624 6.75724 71.4877 6.24086C71.5489 5.99004 71.5405 5.66814 71.7034 5.51256C71.8495 5.37173 72.1849 5.42001 72.4354 5.37307C73.9984 5.08336 75.219 4.3336 75.9441 2.92797C76.0248 2.77238 76.1195 2.72007 76.2962 2.72275C76.8863 2.73214 77.4778 2.72678 78.1111 2.72678C77.8968 3.53958 77.6936 4.31348 77.489 5.08738H80.633C80.4493 5.79959 80.2837 6.50777 80.0832 7.2079C79.9552 7.65722 79.578 7.8061 79.1313 7.81683C78.6622 7.82756 78.1932 7.81951 77.7256 7.83024C77.0826 7.845 76.8488 8.01131 76.6984 8.62024C76.3157 10.16 75.9511 11.7038 75.5809 13.2462C75.5558 13.3535 75.5461 13.4648 75.5405 13.5748C75.5224 13.9826 75.6713 14.2052 76.0889 14.2441C76.5996 14.2911 77.1174 14.2803 77.6323 14.2723C77.9928 14.2669 78.2238 14.0563 78.3839 13.7546C78.594 13.3602 78.5996 13.3629 79.1229 13.434C79.0645 13.6741 79.006 13.9101 78.9476 14.1475C78.7666 14.8919 78.5899 15.6363 78.402 16.378C78.1821 17.2485 77.9817 17.4014 77.0561 17.4041C75.5252 17.4081 73.9942 17.4081 72.4633 17.4041C72.1487 17.4041 71.83 17.3987 71.5197 17.3572C70.6317 17.2351 70.2114 16.7308 70.3561 15.8737C70.5009 15.0207 70.7166 14.1797 70.917 13.3361C71.3025 11.7118 71.6978 10.0903 72.0917 8.46734C72.146 8.24469 72.2169 8.02472 72.281 7.80073V7.79805Z" fill="white"/>
<path d="M122.877 7.7983H121.709C121.79 7.4603 121.869 7.12499 121.95 6.78968C122.04 6.41279 122.146 6.03992 122.22 5.659C122.253 5.48464 122.335 5.43904 122.504 5.42965C123.524 5.36929 124.438 5.03398 125.261 4.44785C125.813 4.05486 126.218 3.54787 126.516 2.96174C126.612 2.77397 126.726 2.71764 126.935 2.723C127.507 2.73641 128.081 2.72837 128.701 2.72837C128.488 3.54385 128.284 4.32311 128.083 5.08897H131.23C131.037 5.82263 130.866 6.5563 130.644 7.27521C130.515 7.69905 130.122 7.80903 129.705 7.81842C129.255 7.82915 128.806 7.8211 128.356 7.82915C127.67 7.84256 127.443 8.00083 127.285 8.63658C126.905 10.167 126.541 11.7027 126.174 13.2357C126.154 13.3162 126.145 13.3994 126.139 13.4812C126.096 13.9962 126.243 14.2095 126.783 14.2618C127.247 14.3074 127.719 14.2886 128.186 14.2779C128.568 14.2698 128.818 14.0633 128.985 13.7387C129.184 13.3511 129.222 13.3417 129.715 13.4423C129.531 14.1934 129.348 14.9445 129.161 15.6956C129.069 16.0618 128.974 16.4279 128.866 16.7914C128.763 17.1361 128.519 17.3346 128.145 17.3722C127.993 17.3869 127.84 17.4043 127.688 17.4043C126.004 17.407 124.32 17.4111 122.636 17.4003C122.352 17.399 122.063 17.3574 121.788 17.2877C121.286 17.1589 120.958 16.829 120.953 16.3233C120.949 15.8874 121.01 15.4408 121.109 15.0142C121.627 12.8052 122.166 10.6015 122.699 8.39516C122.747 8.19263 122.817 7.99546 122.875 7.79964L122.877 7.7983Z" fill="white"/>
<path d="M121.231 5.09392C121.015 5.89733 120.809 6.70074 120.582 7.49745C120.504 7.76972 120.284 7.93067 119.989 7.94543C119.502 7.96957 119.015 7.97627 118.528 7.98566C118.098 7.99371 117.666 7.98298 117.236 8.00042C116.497 8.02992 115.939 8.35585 115.698 9.04123C115.467 9.70247 115.29 10.3825 115.122 11.0625C114.981 11.6245 114.837 12.1932 114.785 12.7672C114.714 13.5612 115.062 13.9945 115.889 14.0575C116.702 14.1179 117.527 14.0602 118.345 14.0173C118.688 13.9998 119.009 13.8201 119.164 13.5183C119.334 13.1897 119.584 13.2085 119.919 13.2474C119.874 13.4432 119.83 13.6256 119.787 13.8094C119.626 14.4827 119.467 15.1547 119.302 15.8266C119.022 16.9707 118.614 17.3597 117.409 17.4965C115.73 17.6883 114.049 17.7097 112.38 17.3959C112.036 17.3315 111.694 17.2242 111.373 17.0901C110.345 16.6636 109.942 15.8441 109.895 14.8193C109.844 13.7302 110.041 12.6653 110.338 11.6258C110.706 10.3409 111.107 9.06269 111.579 7.80996C111.786 7.26005 112.156 6.74903 112.533 6.28093C113.251 5.39034 114.288 5.09527 115.407 5.07917C117.311 5.05369 119.215 5.06576 121.119 5.06307C121.146 5.06307 121.172 5.07649 121.231 5.09124V5.09392Z" fill="white"/>
<path d="M135.911 17.3982C134.408 17.3982 132.944 17.4156 131.483 17.3914C130.741 17.3794 130.502 17.0427 130.645 16.3426C130.667 16.2339 130.694 16.1266 130.72 16.0193C131.463 12.8875 132.208 9.75704 132.95 6.62521C133.076 6.09005 132.986 5.89289 132.479 5.64208C132.297 5.55221 132.354 5.44625 132.385 5.3242C132.417 5.19678 132.403 5.05595 132.625 5.05863C134.003 5.06936 135.38 5.06534 136.758 5.06936C136.852 5.06936 136.948 5.0868 137.042 5.10289C137.614 5.19544 137.817 5.41272 137.707 5.95191C137.488 7.02625 137.229 8.09254 136.976 9.16018C136.445 11.4028 135.904 13.644 135.373 15.8879C135.256 16.3788 135.356 16.5854 135.814 16.8107C136.141 16.9716 135.888 17.1889 135.913 17.4008L135.911 17.3982Z" fill="white"/>
<path d="M134.084 2.00598C135.333 2.00598 136.564 1.97648 137.793 2.0194C138.369 2.03952 138.548 2.32923 138.449 2.88853C138.368 3.34053 138.26 3.78851 138.145 4.23515C138.129 4.30087 138.015 4.39073 137.945 4.39073C136.818 4.39878 135.69 4.40951 134.563 4.38805C133.91 4.37598 133.617 3.97762 133.757 3.3687C133.859 2.92877 133.962 2.49018 134.065 2.05025C134.07 2.02476 134.087 2.00196 134.084 2.00733V2.00598Z" fill="white"/>
<g clip-path="url(#clip0_7678_159409)">
<path d="M17.7354 16.2555C16.8312 16.2555 15.9288 16.2573 15.0246 16.2555C13.3382 16.2519 13.3028 16.1884 14.1663 14.6372C15.0812 12.9934 15.9482 11.3189 16.9444 9.72954C17.5036 8.83872 17.4222 8.12208 16.9285 7.28207C15.9128 5.56031 14.9679 3.79501 13.9487 2.07326C13.4656 1.25683 13.5276 0.797817 14.5486 0.79056C16.748 0.77786 18.9475 0.77786 21.147 0.792374C21.7256 0.796002 22.2051 1.03005 22.5095 1.58703C23.5659 3.51743 24.6293 5.4442 25.6999 7.36552C26.1529 8.17651 26.1405 8.96028 25.6822 9.76401C24.67 11.5347 23.6455 13.3 22.6794 15.098C22.2264 15.9435 21.6159 16.3118 20.6816 16.2646C19.7013 16.2156 18.7175 16.2537 17.7354 16.2537V16.2555Z" fill="white"/>
<path d="M4.84095 18.5314C3.74209 18.5314 2.64147 18.5205 1.54261 18.535C0.866669 18.5441 0.544622 18.3881 0.96753 17.6369C3.94912 12.3392 6.92364 7.03427 9.8893 1.72567C10.3034 0.985442 10.5812 1.00177 10.9811 1.75107C11.9791 3.6216 13.0071 5.47579 14.0653 7.31366C14.5183 8.10106 14.4953 8.83585 14.0741 9.59422C12.5966 12.2521 11.1067 14.901 9.6398 17.5644C9.24698 18.2792 8.6949 18.5713 7.90393 18.5423C6.88471 18.5042 5.86194 18.5332 4.84095 18.5332V18.5314Z" fill="white"/>
</g>
<defs>
<clipPath id="clip0_7678_159409">
<rect width="25.2589" height="20" fill="white" transform="translate(0.777344)"/>
</clipPath>
</defs>
</svg>
