<svg width="24" height="18" viewBox="0 0 24 18" fill="none" xmlns="http://www.w3.org/2000/svg">
<path fill-rule="evenodd" clip-rule="evenodd" d="M8.99988 15.75C8.99988 15.9489 9.07889 16.1397 9.21955 16.2803C9.3602 16.421 9.55096 16.5 9.74988 16.5H21.7499C21.9488 16.5 22.1396 16.421 22.2802 16.2803C22.4209 16.1397 22.4999 15.9489 22.4999 15.75V2.25C22.4999 2.05109 22.4209 1.86032 22.2802 1.71967C22.1396 1.57902 21.9488 1.5 21.7499 1.5H9.74988C9.55096 1.5 9.3602 1.57902 9.21955 1.71967C9.07889 1.86032 8.99988 2.05109 8.99988 2.25V5.25C8.99988 5.44891 8.92086 5.63968 8.78021 5.78033C8.63955 5.92098 8.44879 6 8.24988 6C8.05096 6 7.8602 5.92098 7.71955 5.78033C7.57889 5.63968 7.49988 5.44891 7.49988 5.25V2.25C7.49988 1.65326 7.73693 1.08097 8.15889 0.65901C8.58084 0.237053 9.15314 0 9.74988 0H21.7499C22.3466 0 22.9189 0.237053 23.3409 0.65901C23.7628 1.08097 23.9999 1.65326 23.9999 2.25V15.75C23.9999 16.3467 23.7628 16.919 23.3409 17.341C22.9189 17.7629 22.3466 18 21.7499 18H9.74988C9.15314 18 8.58084 17.7629 8.15889 17.341C7.73693 16.919 7.49988 16.3467 7.49988 15.75V12.75C7.49988 12.5511 7.57889 12.3603 7.71955 12.2197C7.8602 12.079 8.05096 12 8.24988 12C8.44879 12 8.63955 12.079 8.78021 12.2197C8.92086 12.3603 8.99988 12.5511 8.99988 12.75V15.75Z" fill="white"/>
<path fill-rule="evenodd" clip-rule="evenodd" d="M0.218876 9.531C0.149031 9.46133 0.0936167 9.37857 0.055807 9.28745C0.0179974 9.19633 -0.00146484 9.09865 -0.00146484 9C-0.00146484 8.90135 0.0179974 8.80367 0.055807 8.71255C0.0936167 8.62143 0.149031 8.53867 0.218876 8.469L4.71888 3.969C4.78861 3.89927 4.87139 3.84395 4.9625 3.80621C5.05361 3.76848 5.15126 3.74905 5.24988 3.74905C5.34849 3.74905 5.44614 3.76848 5.53725 3.80621C5.62836 3.84395 5.71114 3.89927 5.78088 3.969C5.85061 4.03873 5.90592 4.12152 5.94366 4.21262C5.9814 4.30373 6.00082 4.40138 6.00082 4.5C6.00082 4.59862 5.9814 4.69627 5.94366 4.78738C5.90592 4.87848 5.85061 4.96127 5.78088 5.031L2.56038 8.25H15.7499C15.9488 8.25 16.1396 8.32902 16.2802 8.46967C16.4209 8.61032 16.4999 8.80109 16.4999 9C16.4999 9.19891 16.4209 9.38968 16.2802 9.53033C16.1396 9.67098 15.9488 9.75 15.7499 9.75H2.56038L5.78088 12.969C5.85061 13.0387 5.90592 13.1215 5.94366 13.2126C5.9814 13.3037 6.00082 13.4014 6.00082 13.5C6.00082 13.5986 5.9814 13.6963 5.94366 13.7874C5.90592 13.8785 5.85061 13.9613 5.78088 14.031C5.71114 14.1007 5.62836 14.156 5.53725 14.1938C5.44614 14.2315 5.34849 14.2509 5.24988 14.2509C5.15126 14.2509 5.05361 14.2315 4.9625 14.1938C4.87139 14.156 4.78861 14.1007 4.71888 14.031L0.218876 9.531Z" fill="white"/>
</svg>
