<svg width="505" height="50" viewBox="0 0 505 50" fill="none" xmlns="http://www.w3.org/2000/svg">
<g clip-path="url(#clip0_7624_18376)">
<path d="M42.1322 40.6466C39.8861 40.6466 37.6444 40.6511 35.3982 40.6466C31.2093 40.6375 31.1213 40.4788 33.2664 36.6007C35.5389 32.4914 37.6927 28.3049 40.1674 24.3317C41.5564 22.1046 41.3542 20.313 40.1278 18.213C37.6048 13.9086 35.2576 9.49535 32.7257 5.19096C31.5257 3.14989 31.6796 2.00235 34.2158 1.98421C39.6795 1.95246 45.1432 1.95246 50.6068 1.98875C52.0442 1.99782 53.2354 2.58292 53.9914 3.97539C56.6156 8.80138 59.2573 13.6183 61.9166 18.4216C63.0419 20.4491 63.0111 22.4085 61.8727 24.4178C59.3584 28.8447 56.8134 33.2579 54.4134 37.7528C53.2881 39.8665 51.7717 40.7872 49.4508 40.6693C47.0157 40.5468 44.5717 40.6421 42.1322 40.6421V40.6466Z" fill="#212529"/>
<path d="M10.0943 46.3206C7.36467 46.3206 4.63064 46.2934 1.90099 46.3297C0.221891 46.3524 -0.5781 45.9623 0.472438 44.0845C7.87895 30.8403 15.2679 17.5779 22.6348 4.30636C23.6634 2.45579 24.3535 2.49661 25.3469 4.36986C27.826 9.04618 30.3798 13.6817 33.0084 18.2763C34.1336 20.2448 34.0765 22.0818 33.0303 23.9777C29.36 30.6226 25.659 37.2447 22.0151 43.9031C21.0393 45.6902 19.6678 46.4204 17.703 46.3479C15.1712 46.2526 12.6305 46.3252 10.0943 46.3252V46.3206Z" fill="#212529"/>
</g>
<path d="M278.034 47.3552C277.878 47.9922 277.735 48.5822 277.583 49.2235C275.979 49.2235 274.416 49.2235 272.852 49.2235C269.502 49.2235 266.156 49.2235 262.806 49.2235C262.377 49.2235 261.944 49.2235 261.519 49.1679C259.866 48.9413 259.237 48.3642 259.161 46.7567C259.04 44.1146 259.018 41.4682 258.96 38.8218C258.951 38.4798 258.96 38.1335 258.96 37.7787C258.651 37.7402 258.473 37.6974 258.294 37.6974C254.269 37.6974 250.244 37.7017 246.219 37.6846C245.701 37.6846 245.464 37.877 245.263 38.3088C244.415 40.13 243.517 41.9342 242.663 43.7554C241.761 45.6878 242.185 46.5814 244.388 47.3894C244.272 47.9708 244.151 48.5651 244.021 49.232C243.088 49.232 242.172 49.232 241.256 49.232C237.633 49.232 234.006 49.2363 230.383 49.232C227.779 49.2278 226.939 47.9281 228.136 45.6879C235.217 32.4346 242.311 19.1899 249.386 5.93665C249.717 5.31674 250.03 4.64981 250.141 3.97432C250.329 2.80718 249.967 2.40103 248.766 2.07611C248.565 2.02053 248.364 1.96068 248.087 1.87945C248.171 1.38352 248.203 0.883318 248.368 0.425867C248.435 0.237757 248.788 0.0410958 249.02 0.0325453C249.972 -0.0102071 250.923 0.0154443 251.875 0.0154443C257.557 0.0154443 263.239 0.0111691 268.926 0.0154443C272.03 0.0197196 272.651 0.460069 272.866 3.38006C273.183 7.65958 273.339 11.9519 273.558 16.2357C273.969 24.3971 274.376 32.5586 274.782 40.7243C274.831 41.6948 274.836 42.6653 274.907 43.6315C275.081 46.0769 275.492 46.5728 278.039 47.3637L278.034 47.3552ZM258.656 29.1982C258.557 25.932 258.423 22.6528 258.374 19.3737C258.325 16.1117 258.365 12.8497 258.365 10.1178C255.614 16.1887 252.643 22.7469 249.717 29.1982H258.66H258.656Z" fill="#212529"/>
<path d="M97.4959 32.1124C97.0447 33.9636 96.5891 35.7848 96.1558 37.6104C95.6688 39.671 95.1641 41.7274 94.7352 43.8009C94.2706 46.0497 94.6146 46.5627 96.9911 47.3536C96.8526 47.9522 96.7097 48.5635 96.5533 49.2219H90.4289C87.4806 49.2219 84.5323 49.2219 81.584 49.2219C81.2445 49.2219 80.9095 49.2219 80.57 49.2091C78.3096 49.1022 77.3938 48.0206 77.8674 45.9001C78.5151 43.0014 79.2075 40.1114 79.9044 37.2256C82.3658 27.0462 84.8316 16.8669 87.2841 6.68755C87.4359 6.05909 87.5342 5.4178 87.6236 4.77651C87.829 3.31011 87.4136 2.63889 85.9931 2.12159C85.7965 2.04891 85.5955 1.98478 85.4213 1.92493C85.3989 1.8266 85.3632 1.76674 85.3766 1.71972C85.6565 0.576801 86.4174 0.00534405 87.6593 0.00534405C97.1475 0.00534405 106.64 -0.0160322 116.128 0.0267203C117.803 0.0352707 119.514 0.163528 121.149 0.509823C124.513 1.22379 126.242 3.26308 126.666 6.52936C127.068 9.59471 126.496 12.5575 125.777 15.5116C124.946 18.9233 123.78 22.2238 122.119 25.3575C119.787 29.7482 116.088 32.0483 110.929 32.0953C106.814 32.1338 102.696 32.1124 98.5814 32.1167C98.2464 32.1167 97.9113 32.1167 97.4959 32.1167V32.1124ZM99.8724 22.0613C101.32 22.0613 102.906 22.1126 104.482 22.0485C106.216 21.9758 107.636 21.2447 108.503 19.7783C109.87 17.4697 110.593 14.9559 110.643 12.3009C110.674 10.5695 109.91 9.71442 108.119 9.53913C106.569 9.38522 104.996 9.40232 103.433 9.39805C103.241 9.39805 102.919 9.68877 102.87 9.89398C101.833 14.0196 100.828 18.1537 99.8724 22.0613Z" fill="#212529"/>
<path d="M285.829 11.4495C285.882 11.2015 285.949 11.0049 285.963 10.8039C286.025 10.0173 286.481 9.85909 287.254 9.86336C291.368 9.90184 295.487 9.87191 299.601 9.88474C302.92 9.89329 303.728 10.8851 302.987 13.9633C301.316 20.9149 299.654 27.8664 298.002 34.8222C297.859 35.4208 297.756 36.0407 297.742 36.6478C297.725 37.5071 298.073 38.2381 299.011 38.4818C301.339 39.0889 303.545 38.717 304.506 36.434C305.176 34.8393 305.631 33.1506 306.051 31.4704C307.378 26.1606 308.656 20.8379 309.929 15.5195C310.541 12.9672 310.411 12.7278 308.017 11.4153C308.142 10.9279 308.267 10.4234 308.397 9.90612C313.087 9.90612 317.724 9.90184 322.361 9.91467C322.754 9.91467 323.156 10.0044 323.54 10.0942C324.831 10.3978 325.483 11.1117 325.314 12.3858C325.09 14.0403 324.71 15.6777 324.322 17.3066C322.204 26.1777 320.056 35.0403 317.929 43.9114C317.416 46.0533 317.737 46.6475 319.913 47.6394C319.81 48.114 319.698 48.6184 319.578 49.1785C319.301 49.1913 319.033 49.2212 318.765 49.2212C314.557 49.2212 310.349 49.2383 306.141 49.2084C305.417 49.2041 304.667 49.0887 303.979 48.8749C302.893 48.5329 302.478 47.7933 302.518 46.6946C302.567 45.2966 303.148 44.0781 303.827 42.8853C304.005 42.5732 304.162 42.2483 304.331 41.9277L304.068 41.778C303.907 41.9875 303.733 42.1885 303.585 42.4065C302.621 43.8387 301.687 45.288 300.7 46.7031C299.86 47.9045 298.681 48.6612 297.193 48.9433C293.579 49.6274 289.943 49.8754 286.302 49.2469C282.313 48.5629 280.647 46.3055 281.437 42.4706C282.291 38.3236 283.336 34.2151 284.319 30.0938C285.494 25.173 286.7 20.2565 287.884 15.3357C288.433 13.0527 288.111 12.4413 285.838 11.4452L285.829 11.4495Z" fill="#212529"/>
<path d="M499.742 47.6696C499.608 48.1998 499.487 48.6786 499.349 49.2215C497.884 49.2215 496.445 49.2215 495.011 49.2215C492.001 49.2215 488.99 49.2215 485.983 49.2215C485.523 49.2215 485.059 49.2215 484.607 49.1403C482.736 48.8068 481.954 47.7637 482.374 45.9895C484.17 38.4052 485.992 30.8252 487.837 23.2537C488.32 21.2828 488.101 20.1371 486.962 19.5471C485.55 18.816 483.071 19.1538 482.057 20.4363C481.338 21.3427 480.748 22.4542 480.466 23.5573C478.733 30.4019 477.094 37.268 475.454 44.134C474.985 46.0963 475.374 46.682 477.594 47.6696C477.478 48.157 477.357 48.6615 477.219 49.2301C475.821 49.2301 474.445 49.2301 473.064 49.2301C469.964 49.2301 466.86 49.2386 463.759 49.2258C463.21 49.2258 462.652 49.1873 462.116 49.0804C460.847 48.8282 460.172 48.1527 460.311 46.9172C460.507 45.143 460.851 43.3773 461.267 41.6373C463.353 32.8816 465.484 24.1387 467.601 15.3873C467.623 15.3018 467.637 15.2163 467.655 15.1265C468.097 12.976 467.753 12.3518 465.671 11.5225C465.622 10.0518 465.779 9.88931 467.217 9.88931C471.211 9.88931 475.204 9.88503 479.193 9.88931C482.687 9.89358 483.669 11.1847 482.584 14.3997C482.262 15.3573 481.793 16.2722 481.396 17.2042C481.467 17.247 481.543 17.2855 481.614 17.3282C481.749 17.1145 481.923 16.9135 482.008 16.6827C482.629 14.9811 483.808 13.6259 484.96 12.2535C486.175 10.8042 487.748 9.95344 489.664 9.76533C492.907 9.44468 496.164 9.34635 499.394 9.89358C500.171 10.0261 500.939 10.2741 501.663 10.5862C503.231 11.2617 504.013 12.4887 504.173 14.109C504.401 16.4433 503.678 18.6493 503.15 20.8767C501.341 28.5165 499.501 36.1521 497.687 43.792C497.133 46.122 497.419 46.6307 499.747 47.6739L499.742 47.6696Z" fill="#212529"/>
<path d="M434.356 50.0009C430.916 49.6332 427.454 49.3938 424.042 48.8679C418.913 48.0727 416.899 44.3875 417.077 40.1379C417.318 34.4603 418.752 28.9795 420.615 23.6226C421.531 20.9933 422.652 18.3812 424.064 15.9699C426.154 12.3916 429.728 10.6943 433.833 10.0359C440.159 9.02266 446.498 8.93715 452.761 10.4249C457.08 11.451 459.068 13.9648 459.202 18.2187C459.309 21.6603 458.528 24.9907 457.706 28.3083C456.669 32.5066 455.615 36.7049 453.806 40.6808C452.341 43.8958 450.25 46.5764 446.779 48.0471C444.617 48.962 442.325 49.3596 439.998 49.5477C438.135 49.6973 436.259 49.7315 434.387 49.8127C434.378 49.8726 434.365 49.9367 434.356 49.9966V50.0009ZM436.036 40.2918C437.983 40.4029 439.569 39.3769 440.481 37.3419C440.722 36.8032 440.976 36.2602 441.128 35.6959C441.825 33.0794 442.531 30.4673 443.143 27.8337C443.612 25.803 444.01 23.7509 444.322 21.6945C444.59 19.9374 443.688 18.7232 441.897 18.441C441.012 18.2999 440.043 18.3213 439.167 18.5009C437.126 18.9198 436.08 20.4076 435.625 22.1904C434.401 26.9445 433.208 31.7071 432.172 36.4996C431.64 38.9579 432.989 40.2747 436.04 40.2918H436.036Z" fill="#212529"/>
<path d="M131.62 9.88589C133.523 9.88589 135.332 9.88589 137.141 9.88589C141.961 9.88589 146.786 9.86024 151.606 9.90727C153.071 9.92009 154.563 10.0056 155.997 10.2835C160.004 11.0659 162.13 14.4903 161.165 18.5433C159.182 26.8671 157.149 35.1825 155.148 43.5021C155.023 44.0151 154.916 44.5367 154.867 45.0626C154.777 46.0031 155.202 46.7 156.068 47.166C157.239 47.7944 157.234 47.7987 156.774 49.2267C154.894 49.2267 152.995 49.2267 151.097 49.2267C148.608 49.2267 146.12 49.2267 143.636 49.2267C143.145 49.2267 142.649 49.2267 142.167 49.154C140.232 48.8718 139.585 48.1065 139.92 46.2596C140.139 45.0583 140.581 43.8954 140.956 42.724C141.113 42.2366 141.354 41.7749 141.372 41.2063C141.278 41.3132 141.148 41.403 141.104 41.5269C140.25 43.6774 138.718 45.4046 137.324 47.2258C136.351 48.4956 135.06 49.154 133.483 49.419C130.825 49.8637 128.171 49.9321 125.522 49.3977C121.89 48.6666 119.711 46.5888 119.541 43.0831C119.273 37.5253 120.631 32.2711 123.914 27.6239C126.072 24.5671 129.346 23.3572 133.13 23.3315C135.895 23.3101 138.656 23.3144 141.421 23.3059C142.033 23.3059 142.649 23.3101 143.261 23.2802C145.115 23.1904 146.348 21.6984 145.928 19.9626C145.843 19.6163 145.419 19.2358 145.053 19.0905C144.592 18.9109 144.03 18.9152 143.516 18.9109C140.384 18.8981 137.253 18.9024 134.117 18.9024C133.719 18.9024 133.317 18.9024 132.92 18.8895C130.686 18.7998 129.86 17.8378 130.289 15.7515C130.686 13.8234 131.155 11.9124 131.611 9.89871L131.62 9.88589ZM141.523 39.2525C142.305 36.1059 143.06 33.0748 143.775 30.1933C142.64 30.1933 141.389 30.1463 140.143 30.2061C138.781 30.2702 137.436 30.4583 136.578 31.6725C135.488 33.2202 134.912 34.9303 134.903 36.79C134.894 38.1752 135.43 38.8335 136.851 38.996C138.392 39.1713 139.956 39.1713 141.519 39.2482L141.523 39.2525Z" fill="#212529"/>
<path d="M165.362 35.9104C165.715 38.1849 167.444 38.7321 169.517 38.7321C172.617 38.7321 175.717 38.7321 178.817 38.6252C180.524 38.5696 181.301 37.736 181.028 36.3764C180.93 35.8848 180.559 35.329 180.135 35.0297C179.38 34.4953 178.509 34.0935 177.651 33.7087C175.766 32.8579 173.859 32.0542 171.96 31.2248C167.824 29.4121 166.631 27.501 167.051 23.1702C167.332 20.2588 168.078 17.4542 169.383 14.7907C170.821 11.8579 173.224 10.259 176.575 10.0709C179.179 9.92552 181.788 9.90414 184.397 9.88704C188.542 9.85711 192.688 9.87849 196.833 9.87849H197.95C197.262 12.4522 196.654 14.9361 195.926 17.3858C195.511 18.7838 194.282 19.2113 192.898 19.2242C190.164 19.2498 187.43 19.237 184.7 19.2541C184.12 19.2541 183.53 19.2755 182.958 19.361C181.842 19.5277 181.154 20.1562 181.015 21.0711C180.868 22.0202 181.136 22.5332 182.297 23.0505C185.049 24.2775 187.845 25.4104 190.579 26.6631C191.732 27.1889 192.871 27.8174 193.854 28.5912C195.828 30.1389 196.132 32.3492 195.721 34.5466C195.216 37.2486 194.595 39.9634 193.662 42.5542C192.169 46.6883 188.824 48.749 184.356 49.014C180.961 49.215 177.549 49.1765 174.14 49.2107C171.071 49.2406 167.998 49.2278 164.929 49.2107C161.574 49.1936 160.672 48.0863 161.431 44.9739C162.066 42.3746 162.709 39.7752 163.343 37.1759C163.575 36.2239 164.25 35.7993 165.367 35.9019L165.362 35.9104Z" fill="#212529"/>
<path d="M205.916 18.6036H202.177C202.575 16.9405 202.968 15.286 203.37 13.64C203.567 12.8406 203.54 11.8145 204.063 11.3186C204.532 10.8697 205.608 11.0236 206.412 10.874C211.429 9.95052 215.346 7.56066 217.674 3.0802C217.933 2.58428 218.237 2.41754 218.804 2.42609C220.698 2.45602 222.597 2.43892 224.629 2.43892C223.941 5.02971 223.289 7.49653 222.632 9.96334H232.724C232.134 12.2335 231.602 14.4908 230.959 16.7225C230.548 18.1547 229.338 18.6293 227.904 18.6635C226.398 18.6977 224.893 18.672 223.392 18.7062C221.328 18.7532 220.577 19.2834 220.095 21.2243C218.867 26.1323 217.696 31.0531 216.508 35.9696C216.428 36.3117 216.396 36.6665 216.378 37.0171C216.32 38.3167 216.798 39.0264 218.138 39.1504C219.778 39.3 221.44 39.2658 223.092 39.2402C224.249 39.2231 224.991 38.5519 225.505 37.59C226.179 36.333 226.197 36.3416 227.877 36.5682C227.689 37.3334 227.502 38.0859 227.314 38.8426C226.733 41.2154 226.166 43.5881 225.563 45.9523C224.857 48.727 224.214 49.2143 221.243 49.2229C216.329 49.2357 211.415 49.2357 206.502 49.2229C205.492 49.2229 204.469 49.2058 203.473 49.0732C200.623 48.6842 199.274 47.0767 199.738 44.3448C200.203 41.6258 200.895 38.9452 201.539 36.2561C202.776 31.0788 204.045 25.91 205.309 20.7369C205.483 20.0273 205.711 19.3261 205.916 18.6122V18.6036Z" fill="#212529"/>
<path d="M368.319 18.6044H364.571C364.83 17.527 365.085 16.4582 365.344 15.3894C365.634 14.1881 365.973 12.9995 366.21 11.7854C366.317 11.2296 366.581 11.0842 367.122 11.0543C370.396 10.8619 373.331 9.79312 375.971 7.92484C377.744 6.67219 379.044 5.05615 380 3.18787C380.308 2.58934 380.675 2.40978 381.345 2.42688C383.181 2.46963 385.021 2.44398 387.014 2.44398C386.33 5.04333 385.673 7.52724 385.03 9.9684H395.13C394.509 12.307 393.96 14.6455 393.25 16.937C392.834 18.288 391.575 18.6386 390.234 18.6685C388.792 18.7027 387.349 18.6771 385.906 18.7027C383.704 18.7455 382.975 19.25 382.466 21.2764C381.247 26.1545 380.081 31.0496 378.901 35.9362C378.839 36.1927 378.808 36.4578 378.79 36.7186C378.651 38.3603 379.125 39.04 380.858 39.2068C382.346 39.3521 383.86 39.2923 385.361 39.2581C386.585 39.2324 387.389 38.574 387.925 37.5394C388.564 36.3039 388.684 36.274 390.266 36.5946C389.676 38.9887 389.091 41.3829 388.488 43.777C388.193 44.9442 387.889 46.1113 387.541 47.2699C387.21 48.3686 386.428 49.0014 385.227 49.1211C384.74 49.1681 384.248 49.2237 383.762 49.2237C378.356 49.2322 372.951 49.245 367.546 49.2108C366.635 49.2066 365.705 49.074 364.825 48.8517C363.213 48.4413 362.159 47.3896 362.145 45.7778C362.132 44.3884 362.328 42.9647 362.645 41.6052C364.307 34.5639 366.036 27.5396 367.747 20.5069C367.903 19.8613 368.127 19.2329 368.314 18.6087L368.319 18.6044Z" fill="#212529"/>
<path d="M363.035 9.98298C362.342 12.5438 361.681 15.1047 360.953 17.6442C360.703 18.5121 359.997 19.0251 359.05 19.0721C357.487 19.1491 355.923 19.1705 354.36 19.2004C352.979 19.226 351.594 19.1918 350.214 19.2474C347.842 19.3415 346.051 20.3804 345.278 22.565C344.536 24.6727 343.969 26.8403 343.429 29.0078C342.977 30.7991 342.513 32.6118 342.348 34.4416C342.12 36.9726 343.236 38.3535 345.89 38.5544C348.499 38.7468 351.148 38.563 353.774 38.4262C354.873 38.3706 355.905 37.7977 356.401 36.8358C356.946 35.7883 357.75 35.8482 358.827 35.9722C358.679 36.5963 358.541 37.1778 358.402 37.7635C357.884 39.9097 357.375 42.0516 356.843 44.1935C355.945 47.8402 354.637 49.0801 350.768 49.5161C345.381 50.1275 339.984 50.1959 334.628 49.1955C333.525 48.9903 332.426 48.6483 331.394 48.2207C328.097 46.8612 326.802 44.249 326.65 40.9827C326.489 37.5113 327.119 34.1167 328.075 30.8034C329.254 26.7077 330.541 22.6334 332.055 18.6403C332.721 16.8875 333.909 15.2586 335.12 13.7666C337.425 10.9278 340.753 9.98725 344.344 9.93595C350.455 9.85472 356.566 9.8932 362.677 9.88464C362.762 9.88464 362.847 9.9274 363.035 9.97443V9.98298Z" fill="#212529"/>
<path d="M410.155 49.2034C405.331 49.2034 400.632 49.259 395.941 49.1821C393.56 49.1436 392.792 48.0705 393.252 45.8388C393.323 45.4925 393.408 45.1505 393.493 44.8085C395.878 34.8258 398.268 24.8474 400.649 14.8647C401.056 13.1589 400.766 12.5304 399.14 11.7309C398.554 11.4445 398.737 11.1068 398.836 10.7177C398.938 10.3116 398.894 9.86266 399.609 9.87121C404.031 9.90542 408.449 9.89259 412.871 9.90542C413.175 9.90542 413.483 9.96099 413.783 10.0123C415.619 10.3073 416.271 10.9999 415.918 12.7185C415.217 16.143 414.386 19.5418 413.573 22.9449C411.866 30.0931 410.133 37.237 408.427 44.3895C408.051 45.9543 408.373 46.6126 409.843 47.3309C410.892 47.8439 410.079 48.5365 410.16 49.212L410.155 49.2034Z" fill="#212529"/>
<path d="M404.285 0.136994C408.292 0.136994 412.246 0.0429389 416.19 0.179747C418.04 0.243875 418.611 1.16733 418.294 2.9501C418.035 4.39086 417.687 5.81879 417.32 7.24244C417.267 7.45193 416.901 7.73837 416.677 7.73837C413.059 7.76402 409.44 7.79823 405.822 7.72982C403.727 7.69135 402.784 6.4216 403.236 4.48064C403.562 3.07836 403.892 1.68036 404.223 0.278077C404.241 0.196848 404.294 0.124168 404.285 0.141269V0.136994Z" fill="#212529"/>
<defs>
<clipPath id="clip0_7624_18376">
<rect width="62.7451" height="50" fill="white"/>
</clipPath>
</defs>
</svg>
