<svg width="25" height="22" viewBox="0 0 25 22" fill="none" xmlns="http://www.w3.org/2000/svg">
<path d="M16.7812 2C16.7812 1.60218 16.9393 1.22064 17.2206 0.93934C17.5019 0.658035 17.8834 0.5 18.2812 0.5H21.2812C21.6791 0.5 22.0606 0.658035 22.3419 0.93934C22.6232 1.22064 22.7812 1.60218 22.7812 2V20H23.5312C23.7302 20 23.9209 20.079 24.0616 20.2197C24.2022 20.3603 24.2812 20.5511 24.2812 20.75C24.2812 20.9489 24.2022 21.1397 24.0616 21.2803C23.9209 21.421 23.7302 21.5 23.5312 21.5H1.03125C0.832338 21.5 0.641572 21.421 0.50092 21.2803C0.360268 21.1397 0.28125 20.9489 0.28125 20.75C0.28125 20.5511 0.360268 20.3603 0.50092 20.2197C0.641572 20.079 0.832338 20 1.03125 20H1.78125V15.5C1.78125 15.1022 1.93929 14.7206 2.22059 14.4393C2.50189 14.158 2.88343 14 3.28125 14H6.28125C6.67907 14 7.06061 14.158 7.34191 14.4393C7.62321 14.7206 7.78125 15.1022 7.78125 15.5V20H9.28125V9.5C9.28125 9.10218 9.43929 8.72064 9.72059 8.43934C10.0019 8.15804 10.3834 8 10.7812 8H13.7812C14.1791 8 14.5606 8.15804 14.8419 8.43934C15.1232 8.72064 15.2812 9.10218 15.2812 9.5V20H16.7812V2ZM18.2812 20H21.2812V2H18.2812V20ZM13.7812 20V9.5H10.7812V20H13.7812ZM6.28125 20V15.5H3.28125V20H6.28125Z" fill="#212529"/>
</svg>
