<svg viewBox="0 0 36 31" fill="currentColor" xmlns="http://www.w3.org/2000/svg">
	<path
		d="M7.875 19.6172C8.49632 19.6172 9 19.1922 9 18.668C9 18.1437 8.49632 17.7188 7.875 17.7188C7.25368 17.7188 6.75 18.1437 6.75 18.668C6.75 19.1922 7.25368 19.6172 7.875 19.6172Z"
		fill="currentColor" />
	<path
		d="M18 12.0234C18.6213 12.0234 19.125 11.5985 19.125 11.0742C19.125 10.55 18.6213 10.125 18 10.125C17.3787 10.125 16.875 10.55 16.875 11.0742C16.875 11.5985 17.3787 12.0234 18 12.0234Z"
		fill="currentColor" />
	<path
		d="M28.125 19.6172C28.7463 19.6172 29.25 19.1922 29.25 18.668C29.25 18.1437 28.7463 17.7188 28.125 17.7188C27.5037 17.7188 27 18.1437 27 18.668C27 19.1922 27.5037 19.6172 28.125 19.6172Z"
		fill="currentColor" />
	<path
		d="M11.25 14.8672C11.8713 14.8672 12.375 14.4422 12.375 13.918C12.375 13.3937 11.8713 12.9688 11.25 12.9688C10.6287 12.9688 10.125 13.3937 10.125 13.918C10.125 14.4422 10.6287 14.8672 11.25 14.8672Z"
		fill="currentColor" />
	<path
		d="M34 21.625H31.7143C31.7143 20.1827 31.4914 18.7633 31.0526 17.4044L33.2286 16.7016C33.7406 18.2879 34 19.945 34 21.625ZM33.8286 9.02843L31.0446 11.8124C30.8326 12.025 30.5808 12.1937 30.3034 12.3086C30.0261 12.4235 29.7288 12.4825 29.4286 12.4821C28.9771 12.481 28.536 12.3462 28.1609 12.0949C27.7858 11.8435 27.4935 11.4868 27.3207 11.0697C27.1479 10.6525 27.1024 10.1936 27.19 9.75062C27.2775 9.30767 27.4941 8.90051 27.8126 8.58043L30.5977 5.79529C30.2172 5.68733 29.8241 5.63007 29.4286 5.625C26.9074 5.625 24.8571 7.67643 24.8571 10.1964C24.8571 11.0421 25.1029 11.825 25.5051 12.505L20.3074 17.7027C19.6103 17.2827 18.8127 17.0588 17.9989 17.0547C15.4789 17.0547 13.4274 19.105 13.4274 21.6261C13.4274 24.1473 15.4789 26.1976 17.9989 26.1976C20.5189 26.1976 22.5703 24.1461 22.5703 21.6261C22.5703 20.7804 22.3257 19.9987 21.9234 19.3176L27.1211 14.121C27.8179 14.541 28.6151 14.7648 29.4286 14.769C31.9497 14.769 34 12.7176 34 10.1976C33.9945 9.80202 33.9368 9.40892 33.8286 9.02843ZM18 23.9107C16.7394 23.9107 15.7143 22.8856 15.7143 21.625C15.7143 20.3644 16.7394 19.3393 18 19.3393C19.2606 19.3393 20.2857 20.3656 20.2857 21.625C20.2857 22.8844 19.2606 23.9107 18 23.9107ZM4.28571 21.625H2C2 12.8021 9.17714 5.625 18 5.625C19.68 5.625 21.3371 5.88443 22.9223 6.39643L22.2206 8.57243C20.8569 8.13271 19.4328 7.90942 18 7.91071C10.4377 7.91071 4.28571 14.0627 4.28571 21.625Z"
		fill="currentColor" fill-opacity="0.82" />
</svg>