<svg width="44" height="44" viewBox="0 0 44 44" fill="none" xmlns="http://www.w3.org/2000/svg">
<path d="M31.724 38.5277C33.8979 36.3598 35.622 33.7836 36.7971 30.9473C37.9722 28.1109 38.5753 25.0703 38.5715 22.0002C38.5753 18.93 37.9722 15.8894 36.7971 13.0531C35.622 10.2167 33.8979 7.64056 31.724 5.47266L29.777 7.41691C31.6952 9.32978 33.2164 11.6029 34.2533 14.1056C35.2901 16.6083 35.8221 19.2912 35.8187 22.0002C35.8187 27.6954 33.5088 32.8517 29.777 36.5834L31.724 38.5277Z" fill="white" fill-opacity="0.68"/>
<path d="M27.8328 34.6392C29.4951 32.9812 30.8134 31.0112 31.712 28.8421C32.6105 26.6731 33.0716 24.3479 33.0687 22.0002C33.0716 19.6524 32.6105 17.3272 31.712 15.1582C30.8134 12.9892 29.4951 11.0191 27.8328 9.36116L25.8885 11.3054C27.2951 12.7083 28.4106 14.3753 29.1708 16.2107C29.9311 18.0461 30.3212 20.0136 30.3187 22.0002C30.322 23.987 29.9325 25.9549 29.1726 27.7908C28.4128 29.6266 27.2977 31.2942 25.8913 32.6977L27.8328 34.6392Z" fill="white" fill-opacity="0.68"/>
<path d="M27.5687 22.0002C27.5709 23.6256 27.2517 25.2354 26.6297 26.7371C26.0077 28.2388 25.0951 29.6028 23.9443 30.7507L22 28.8064C22.8951 27.9136 23.6049 26.8526 24.0886 25.6846C24.5724 24.5165 24.8205 23.2644 24.8187 22.0002C24.8187 19.3437 23.7407 16.9374 22 15.1939L23.9443 13.2497C25.0951 14.3975 26.0077 15.7615 26.6297 17.2632C27.2517 18.7649 27.5709 20.3747 27.5687 22.0002ZM19.25 11.0002C19.2496 10.7414 19.1763 10.488 19.0383 10.2691C18.9004 10.0502 18.7035 9.87468 18.4703 9.76266C18.2371 9.65064 17.977 9.6067 17.7199 9.63589C17.4628 9.66508 17.2192 9.76621 17.017 9.92766L10.5188 15.1252H4.125C3.76033 15.1252 3.41059 15.27 3.15273 15.5279C2.89487 15.7857 2.75 16.1355 2.75 16.5002V27.5002C2.75 27.8648 2.89487 28.2146 3.15273 28.4724C3.41059 28.7303 3.76033 28.8752 4.125 28.8752H10.5188L17.017 34.0727C17.2192 34.2341 17.4628 34.3352 17.7199 34.3644C17.977 34.3936 18.2371 34.3497 18.4703 34.2377C18.7035 34.1256 18.9004 33.9501 19.0383 33.7312C19.1763 33.5123 19.2496 33.2589 19.25 33.0002V11.0002ZM11.858 17.5727L16.5 13.8602V30.1402L11.858 26.4277C11.6146 26.2324 11.312 26.1257 11 26.1252H5.5V17.8752H11C11.312 17.8746 11.6146 17.7679 11.858 17.5727Z" fill="white" fill-opacity="0.68"/>
</svg>
