<svg width="37" height="26" viewBox="0 0 37 26" fill="none" xmlns="http://www.w3.org/2000/svg">
<path d="M16.4718 0.760981C16.7047 0.873205 16.9013 1.04884 17.039 1.26774C17.1766 1.48663 17.2498 1.7399 17.25 1.99848V23.9985C17.2496 24.2572 17.1763 24.5106 17.0383 24.7295C16.9004 24.9484 16.7035 25.124 16.4703 25.236C16.2371 25.348 15.977 25.3919 15.7199 25.3627C15.4628 25.3336 15.2192 25.2324 15.017 25.071L8.51875 19.8735H2.125C1.76033 19.8735 1.41059 19.7286 1.15273 19.4708C0.894866 19.2129 0.75 18.8632 0.75 18.4985V7.49848C0.75 7.13381 0.894866 6.78407 1.15273 6.52621C1.41059 6.26835 1.76033 6.12348 2.125 6.12348H8.51875L15.017 0.925981C15.2193 0.764248 15.4632 0.662952 15.7206 0.633761C15.978 0.604569 16.2383 0.648669 16.4718 0.760981ZM14.5 4.85848L9.858 8.57098C9.61461 8.76625 9.31204 8.87292 9 8.87348H3.5V17.1235H9C9.31204 17.124 9.61461 17.2307 9.858 17.426L14.5 21.1385V4.85848ZM36.0985 6.52498C36.2266 6.65271 36.3281 6.80444 36.3975 6.97149C36.4668 7.13854 36.5025 7.31762 36.5025 7.49848C36.5025 7.67934 36.4668 7.85842 36.3975 8.02547C36.3281 8.19252 36.2266 8.34426 36.0985 8.47198L31.5693 12.9985L36.0985 17.525C36.3567 17.7832 36.5017 18.1333 36.5017 18.4985C36.5017 18.8636 36.3567 19.2138 36.0985 19.472C35.8403 19.7302 35.4901 19.8752 35.125 19.8752C34.7599 19.8752 34.4097 19.7302 34.1515 19.472L29.625 14.9427L25.0985 19.472C24.8403 19.7302 24.4901 19.8752 24.125 19.8752C23.7599 19.8752 23.4097 19.7302 23.1515 19.472C22.8933 19.2138 22.7483 18.8636 22.7483 18.4985C22.7483 18.1333 22.8933 17.7832 23.1515 17.525L27.6807 12.9985L23.1515 8.47198C23.0237 8.34414 22.9222 8.19237 22.8531 8.02534C22.7839 7.8583 22.7483 7.67928 22.7483 7.49848C22.7483 7.31769 22.7839 7.13866 22.8531 6.97163C22.9222 6.80459 23.0237 6.65282 23.1515 6.52498C23.4097 6.26679 23.7599 6.12174 24.125 6.12174C24.3058 6.12174 24.4848 6.15735 24.6519 6.22654C24.8189 6.29573 24.9707 6.39714 25.0985 6.52498L29.625 11.0542L34.1515 6.52498C34.2792 6.39693 34.431 6.29534 34.598 6.22602C34.7651 6.1567 34.9441 6.12102 35.125 6.12102C35.3059 6.12102 35.4849 6.1567 35.652 6.22602C35.819 6.29534 35.9708 6.39693 36.0985 6.52498Z" fill="white" fill-opacity="0.68"/>
</svg>
