<svg viewBox="0 0 20 25" fill="none" xmlns="http://www.w3.org/2000/svg">
<path d="M6 3.5H3.5C2.83696 3.5 2.20107 3.76339 1.73223 4.23223C1.26339 4.70107 1 5.33696 1 6V21C1 21.663 1.26339 22.2989 1.73223 22.7678C2.20107 23.2366 2.83696 23.5 3.5 23.5H16C16.663 23.5 17.2989 23.2366 17.7678 22.7678C18.2366 22.2989 18.5 21.663 18.5 21V6C18.5 5.33696 18.2366 4.70107 17.7678 4.23223C17.2989 3.76339 16.663 3.5 16 3.5H13.5" stroke="white" stroke-width="1.5" stroke-linecap="round" stroke-linejoin="round"/>
<path d="M6 18.5V12.25M9.75 18.5V17.25M13.5 18.5V14.75M6 3.5C6 2.83696 6.26339 2.20107 6.73223 1.73223C7.20107 1.26339 7.83696 1 8.5 1H11C11.663 1 12.2989 1.26339 12.7678 1.73223C13.2366 2.20107 13.5 2.83696 13.5 3.5C13.5 4.16304 13.2366 4.79893 12.7678 5.26777C12.2989 5.73661 11.663 6 11 6H8.5C7.83696 6 7.20107 5.73661 6.73223 5.26777C6.26339 4.79893 6 4.16304 6 3.5Z" stroke="white" stroke-width="1.5" stroke-linecap="round" stroke-linejoin="round"/>
</svg>
