<svg width="12" height="12" viewBox="0 0 12 12" fill="none" xmlns="http://www.w3.org/2000/svg">
<g clip-path="url(#clip0_2110_62153)">
<path d="M2.25 1.5V4.9395L7.5 10.1895L10.9395 6.75L5.6895 1.5H2.25ZM1.5 1.5C1.5 1.30109 1.57902 1.11032 1.71967 0.96967C1.86032 0.829018 2.05109 0.75 2.25 0.75H5.6895C5.8884 0.750042 6.07913 0.829088 6.21975 0.96975L11.4698 6.21975C11.6104 6.3604 11.6893 6.55113 11.6893 6.75C11.6893 6.94887 11.6104 7.1396 11.4698 7.28025L8.03025 10.7198C7.8896 10.8604 7.69887 10.9393 7.5 10.9393C7.30113 10.9393 7.1104 10.8604 6.96975 10.7198L1.71975 5.46975C1.57909 5.32913 1.50004 5.1384 1.5 4.9395V1.5Z" fill="white"/>
<path d="M4.125 3.75C4.02554 3.75 3.93016 3.71049 3.85984 3.64017C3.78951 3.56984 3.75 3.47446 3.75 3.375C3.75 3.27554 3.78951 3.18016 3.85984 3.10984C3.93016 3.03951 4.02554 3 4.125 3C4.22446 3 4.31984 3.03951 4.39017 3.10984C4.46049 3.18016 4.5 3.27554 4.5 3.375C4.5 3.47446 4.46049 3.56984 4.39017 3.64017C4.31984 3.71049 4.22446 3.75 4.125 3.75ZM4.125 4.5C4.42337 4.5 4.70952 4.38147 4.9205 4.1705C5.13147 3.95952 5.25 3.67337 5.25 3.375C5.25 3.07663 5.13147 2.79048 4.9205 2.57951C4.70952 2.36853 4.42337 2.25 4.125 2.25C3.82663 2.25 3.54048 2.36853 3.3295 2.57951C3.11853 2.79048 3 3.07663 3 3.375C3 3.67337 3.11853 3.95952 3.3295 4.1705C3.54048 4.38147 3.82663 4.5 4.125 4.5ZM0.75 5.3145C0.750043 5.5134 0.829088 5.70413 0.96975 5.84475L6.5625 11.4375L6.53025 11.4698C6.3896 11.6104 6.19887 11.6893 6 11.6893C5.80113 11.6893 5.6104 11.6104 5.46975 11.4698L0.21975 6.21975C0.079088 6.07913 4.24781e-05 5.8884 0 5.6895V2.25C0 2.05109 0.0790176 1.86032 0.21967 1.71967C0.360322 1.57902 0.551088 1.5 0.75 1.5V5.3145Z" fill="white"/>
</g>
<defs>
<clipPath id="clip0_2110_62153">
<rect width="12" height="12" fill="white"/>
</clipPath>
</defs>
</svg>
