<svg width="21" height="21" viewBox="0 0 21 21" fill="none" xmlns="http://www.w3.org/2000/svg">
<path d="M8.95434 16.078C8.75589 16.3585 8.56798 16.4968 8.38834 16.4968C8.26859 16.4968 8.20044 16.4267 8.17877 16.2875C8.17021 16.2587 8.17021 16.1495 8.17021 15.9397V12.3013H7.27545V16.2088C7.27545 16.5581 7.3051 16.7937 7.35443 16.9434C7.44368 17.1937 7.64271 17.3109 7.93127 17.3109C8.26032 17.3109 8.59849 17.1122 8.95406 16.7038V17.243H9.85025V12.3016H8.95434V16.078ZM4.02344 11.5445H5.07674V17.243H6.07245V11.5445H7.14514V10.611H4.02344V11.5445ZM10.1208 7.2241C10.4125 7.2241 10.5523 6.99314 10.5523 6.53093V4.43003C10.5523 3.96839 10.4125 3.73828 10.1208 3.73828C9.82887 3.73828 9.68886 3.96839 9.68886 4.43003V6.53093C9.68915 6.99286 9.82887 7.2241 10.1208 7.2241ZM12.4456 12.2411C12.1165 12.2411 11.8097 12.4213 11.5209 12.7772V10.611H10.6253V17.243H11.5209V16.7634C11.8197 17.1338 12.1274 17.3109 12.4456 17.3109C12.8023 17.3109 13.0418 17.1233 13.1616 16.7557C13.2212 16.5462 13.2517 16.2171 13.2517 15.76V13.7923C13.2517 13.3247 13.2212 12.9979 13.1616 12.7991C13.0415 12.4287 12.8023 12.2411 12.4456 12.2411ZM12.3563 15.8302C12.3563 16.2764 12.2249 16.4965 11.9668 16.4965C11.8197 16.4965 11.6703 16.4264 11.5206 16.2767V13.2645C11.6703 13.1171 11.8194 13.0469 11.9668 13.0469C12.2252 13.0469 12.3563 13.2756 12.3563 13.7213V15.8302ZM15.2973 12.2411C14.8405 12.2411 14.4835 12.4096 14.2251 12.7481C14.0347 12.9976 13.9483 13.3837 13.9483 13.9115V15.6428C13.9483 16.1675 14.0458 16.5578 14.236 16.8045C14.4946 17.1418 14.851 17.3106 15.3198 17.3106C15.7874 17.3106 16.1544 17.1335 16.4025 16.7754C16.5118 16.6145 16.5833 16.431 16.6115 16.2385C16.6194 16.1487 16.6306 15.9496 16.6306 15.6617V15.5305H15.7167C15.7167 15.8898 15.7056 16.0885 15.6973 16.1373C15.6463 16.3765 15.5174 16.4963 15.2973 16.4963C14.9899 16.4963 14.8405 16.2681 14.8405 15.8108V14.9348H16.6309V13.9112C16.6309 13.3831 16.541 12.9973 16.3537 12.7478C16.1031 12.4094 15.7466 12.2411 15.2973 12.2411ZM15.7355 14.1898H14.8405V13.7327C14.8405 13.2759 14.9899 13.0472 15.2893 13.0472C15.5855 13.0472 15.7355 13.2759 15.7355 13.7327V14.1898Z" fill="white"/>
<path d="M18.5926 0H2.05457C0.956781 0 0.0585938 0.898188 0.0585938 1.99597V18.534C0.0585938 19.6318 0.956781 20.53 2.05457 20.53H18.5926C19.6904 20.53 20.5886 19.6318 20.5886 18.534V1.99597C20.5886 0.898188 19.6904 0 18.5926 0ZM12.1998 2.9854H13.1017V6.66142C13.1017 6.87413 13.1017 6.98448 13.1128 7.01356C13.1328 7.15385 13.2035 7.22542 13.325 7.22542C13.5057 7.22542 13.6959 7.08513 13.8964 6.8017V2.9854H14.8014V7.97819H13.8964V7.43357C13.5363 7.84674 13.1927 8.04747 12.8628 8.04747C12.5713 8.04747 12.3703 7.92914 12.2799 7.67594C12.23 7.5251 12.1998 7.28587 12.1998 6.93344V2.9854ZM8.78185 4.61298C8.78185 4.07948 8.87281 3.68913 9.06528 3.43678C9.31563 3.09575 9.66806 2.92495 10.1186 2.92495C10.5719 2.92495 10.9238 3.09575 11.1744 3.43678C11.3638 3.68913 11.4553 4.07948 11.4553 4.61298V6.3623C11.4553 6.89266 11.3641 7.28615 11.1744 7.53679C10.9238 7.87696 10.5722 8.04776 10.1186 8.04776C9.66777 8.04776 9.31534 7.87696 9.06528 7.53679C8.87281 7.28615 8.78185 6.89266 8.78185 6.3623V4.61298ZM6.36216 1.27799L7.07472 3.90897L7.75877 1.27799H8.77329L7.56659 5.2648V7.97819H6.5629V5.2648C6.47222 4.78349 6.27149 4.0792 5.94985 3.1448C5.73828 2.52319 5.51786 1.89874 5.30657 1.27799H6.36216ZM17.4729 17.5412C17.2921 18.329 16.6471 18.9101 15.8715 18.9965C14.0341 19.2018 12.1747 19.203 10.3236 19.2018C8.47219 19.203 6.6128 19.2018 4.77565 18.9965C3.99978 18.9098 3.35594 18.3287 3.17488 17.5412C2.91683 16.4189 2.91683 15.1939 2.91683 14.0391C2.91683 12.8831 2.91968 11.659 3.17801 10.5365C3.35879 9.7489 4.00292 9.16807 4.77878 9.08139C6.61593 8.87552 8.47532 8.87495 10.3267 8.87552C12.1779 8.87495 14.0372 8.87552 15.8747 9.08139C16.65 9.16807 17.2947 9.7489 17.4757 10.5365C17.7338 11.6593 17.7324 12.8831 17.7324 14.0391C17.7326 15.1939 17.7312 16.4189 17.4729 17.5412Z" fill="white"/>
</svg>
