<svg width="427" height="50" viewBox="0 0 427 50" fill="none" xmlns="http://www.w3.org/2000/svg">
<path d="M200.288 47.3539C200.132 47.9909 199.989 48.5808 199.837 49.2221C198.233 49.2221 196.67 49.2221 195.106 49.2221C191.756 49.2221 188.41 49.2221 185.06 49.2221C184.631 49.2221 184.197 49.2221 183.773 49.1666C182.12 48.94 181.49 48.3628 181.414 46.7553C181.294 44.1132 181.272 41.4668 181.213 38.8205C181.205 38.4784 181.213 38.1322 181.213 37.7773C180.905 37.7388 180.727 37.6961 180.548 37.6961C176.523 37.6961 172.498 37.7004 168.473 37.6833C167.955 37.6833 167.718 37.8756 167.517 38.3074C166.668 40.1287 165.771 41.9328 164.917 43.7541C164.015 45.6865 164.439 46.58 166.642 47.3881C166.526 47.9695 166.405 48.5637 166.275 49.2307C165.342 49.2307 164.426 49.2307 163.51 49.2307C159.887 49.2307 156.26 49.235 152.637 49.2307C150.033 49.2264 149.193 47.9267 150.39 45.6865C157.471 32.4333 164.564 19.1886 171.64 5.93531C171.971 5.3154 172.284 4.64846 172.395 3.97298C172.583 2.80583 172.221 2.39969 171.019 2.07477C170.818 2.01919 170.617 1.95934 170.34 1.87811C170.425 1.38218 170.457 0.881976 170.622 0.424525C170.689 0.236414 171.042 0.039753 171.274 0.0312025C172.226 -0.0115499 173.177 0.0141016 174.129 0.0141016C179.811 0.0141016 185.493 0.00982632 191.18 0.0141016C194.284 0.0183768 194.905 0.458727 195.12 3.37872C195.437 7.65823 195.593 11.9506 195.812 16.2344C196.223 24.3958 196.629 32.5572 197.036 40.723C197.085 41.6934 197.09 42.6639 197.161 43.6301C197.335 46.0756 197.746 46.5715 200.293 47.3624L200.288 47.3539ZM180.91 29.1969C180.811 25.9306 180.677 22.6515 180.628 19.3724C180.579 16.1104 180.619 12.8484 180.619 10.1165C177.868 16.1873 174.897 22.7456 171.971 29.1969H180.914H180.91Z" fill="#212529"/>
<path d="M19.7498 32.1124C19.2986 33.9636 18.843 35.7848 18.4097 37.6104C17.9227 39.671 17.418 41.7274 16.9891 43.8009C16.5245 46.0497 16.8685 46.5627 19.245 47.3536C19.1065 47.9522 18.9636 48.5635 18.8072 49.2219H12.6828C9.73451 49.2219 6.78621 49.2219 3.83791 49.2219C3.49841 49.2219 3.16338 49.2219 2.82387 49.2091C0.56351 49.1022 -0.35225 48.0206 0.121265 45.9001C0.768998 43.0014 1.4614 40.1114 2.15827 37.2256C4.61966 27.0462 7.08551 16.8669 9.53796 6.68755C9.68984 6.05909 9.78812 5.4178 9.87746 4.77651C10.0829 3.31011 9.66751 2.63889 8.24696 2.12159C8.05041 2.04891 7.84939 1.98478 7.67517 1.92493C7.65283 1.8266 7.6171 1.76674 7.6305 1.71972C7.91044 0.576801 8.67134 0.00534405 9.9132 0.00534405C19.4014 0.00534405 28.894 -0.0160322 38.3822 0.0267203C40.0573 0.0352707 41.7682 0.163528 43.4032 0.509823C46.767 1.22379 48.4957 3.26308 48.9201 6.52936C49.3221 9.59471 48.7504 12.5575 48.0311 15.5116C47.2003 18.9233 46.0343 22.2238 44.3726 25.3575C42.0407 29.7482 38.342 32.0483 33.1824 32.0953C29.0682 32.1338 24.9495 32.1124 20.8353 32.1167C20.5003 32.1167 20.1652 32.1167 19.7498 32.1167V32.1124ZM22.1263 22.0613C23.5737 22.0613 25.1595 22.1126 26.7364 22.0485C28.4696 21.9758 29.8902 21.2447 30.7568 19.7783C32.1237 17.4697 32.8474 14.9559 32.8965 12.3009C32.9278 10.5695 32.1639 9.71442 30.3726 9.53913C28.8225 9.38522 27.2501 9.40232 25.6866 9.39805C25.4945 9.39805 25.1729 9.68877 25.1237 9.89398C24.0874 14.0196 23.0823 18.1537 22.1263 22.0613Z" fill="#212529"/>
<path d="M208.084 11.4501C208.138 11.2021 208.205 11.0055 208.218 10.8045C208.281 10.0179 208.736 9.8597 209.509 9.86397C213.623 9.90245 217.742 9.87253 221.856 9.88535C225.175 9.8939 225.984 10.8858 225.242 13.9639C223.572 20.9155 221.91 27.867 220.257 34.8228C220.114 35.4214 220.011 36.0413 219.998 36.6484C219.98 37.5077 220.328 38.2388 221.267 38.4824C223.594 39.0895 225.801 38.7176 226.761 36.4346C227.431 34.8399 227.887 33.1512 228.307 31.471C229.633 26.1612 230.911 20.8385 232.184 15.5201C232.796 12.9678 232.667 12.7284 230.272 11.4159C230.397 10.9285 230.522 10.424 230.652 9.90673C235.342 9.90673 239.979 9.90245 244.616 9.91528C245.009 9.91528 245.411 10.0051 245.795 10.0948C247.086 10.3984 247.739 11.1123 247.569 12.3864C247.346 14.0409 246.966 15.6783 246.577 17.3072C244.46 26.1783 242.311 35.0409 240.185 43.912C239.671 46.0539 239.993 46.6482 242.168 47.64C242.065 48.1146 241.954 48.619 241.833 49.1791C241.556 49.1919 241.288 49.2219 241.02 49.2219C236.812 49.2219 232.604 49.239 228.396 49.209C227.672 49.2048 226.922 49.0893 226.234 48.8756C225.148 48.5335 224.733 47.7939 224.773 46.6952C224.822 45.2972 225.403 44.0787 226.082 42.8859C226.261 42.5738 226.417 42.2489 226.587 41.9283L226.323 41.7787C226.162 41.9881 225.988 42.1891 225.841 42.4071C224.876 43.8393 223.942 45.2886 222.955 46.7037C222.115 47.9051 220.936 48.6618 219.448 48.944C215.835 49.628 212.198 49.876 208.558 49.2475C204.568 48.5635 202.902 46.3061 203.693 42.4712C204.546 38.3243 205.591 34.2158 206.574 30.0944C207.749 25.1736 208.955 20.2571 210.139 15.3363C210.688 13.0533 210.367 12.4419 208.093 11.4458L208.084 11.4501Z" fill="#212529"/>
<path d="M421.996 47.67C421.862 48.2001 421.742 48.6789 421.603 49.2219C420.138 49.2219 418.7 49.2219 417.266 49.2219C414.255 49.2219 411.244 49.2219 408.238 49.2219C407.778 49.2219 407.313 49.2219 406.862 49.1407C404.99 48.8072 404.208 47.764 404.628 45.9898C406.424 38.4055 408.247 30.8255 410.092 23.2541C410.574 21.2832 410.355 20.1374 409.216 19.5474C407.804 18.8164 405.325 19.1541 404.311 20.4367C403.592 21.343 403.002 22.4546 402.721 23.5576C400.988 30.4023 399.348 37.2683 397.709 44.1344C397.24 46.0967 397.628 46.6824 399.848 47.67C399.732 48.1574 399.612 48.6618 399.473 49.2304C398.075 49.2304 396.699 49.2304 395.319 49.2304C392.219 49.2304 389.114 49.239 386.014 49.2262C385.464 49.2262 384.906 49.1877 384.37 49.0808C383.101 48.8286 382.427 48.1531 382.565 46.9175C382.762 45.1433 383.106 43.3776 383.521 41.6376C385.607 32.8819 387.738 24.1391 389.856 15.3876C389.878 15.3021 389.891 15.2166 389.909 15.1268C390.351 12.9764 390.007 12.3522 387.926 11.5228C387.877 10.0521 388.033 9.88968 389.471 9.88968C393.465 9.88968 397.459 9.8854 401.448 9.88968C404.941 9.89395 405.924 11.1851 404.838 14.4001C404.517 15.3577 404.048 16.2726 403.65 17.2046C403.721 17.2474 403.797 17.2858 403.869 17.3286C404.003 17.1148 404.177 16.9139 404.262 16.683C404.883 14.9815 406.062 13.6262 407.215 12.2539C408.43 10.8046 410.002 9.9538 411.919 9.76569C415.162 9.44505 418.418 9.34672 421.648 9.89395C422.425 10.0265 423.194 10.2744 423.917 10.5865C425.485 11.262 426.267 12.489 426.428 14.1093C426.656 16.4436 425.932 18.6496 425.405 20.877C423.596 28.5169 421.755 36.1525 419.942 43.7923C419.388 46.1223 419.674 46.6311 422.001 47.6743L421.996 47.67Z" fill="#212529"/>
<path d="M356.611 50C353.172 49.6323 349.71 49.3929 346.297 48.8671C341.169 48.0719 339.154 44.3866 339.333 40.137C339.574 34.4595 341.008 28.9786 342.871 23.6218C343.786 20.9925 344.908 18.3803 346.319 15.9691C348.41 12.3907 351.984 10.6934 356.089 10.035C362.414 9.02181 368.753 8.9363 375.016 10.4241C379.336 11.4501 381.324 13.964 381.458 18.2179C381.565 21.6594 380.783 24.9898 379.961 28.3074C378.925 32.5057 377.87 36.704 376.061 40.68C374.596 43.895 372.505 46.5755 369.035 48.0462C366.872 48.9611 364.581 49.3587 362.253 49.5468C360.391 49.6965 358.514 49.7307 356.643 49.8119C356.634 49.8717 356.62 49.9359 356.611 49.9957V50ZM358.291 40.2909C360.239 40.4021 361.825 39.376 362.736 37.341C362.977 36.8023 363.232 36.2594 363.384 35.695C364.08 33.0786 364.786 30.4664 365.398 27.8329C365.867 25.8021 366.265 23.75 366.578 21.6936C366.846 19.9365 365.943 18.7223 364.152 18.4402C363.267 18.2991 362.298 18.3205 361.423 18.5C359.381 18.919 358.336 20.4068 357.88 22.1896C356.656 26.9436 355.463 31.7062 354.427 36.4988C353.895 38.957 355.245 40.2738 358.296 40.2909H358.291Z" fill="#212529"/>
<path d="M53.8748 9.8854C55.7777 9.8854 57.5869 9.8854 59.3961 9.8854C64.2161 9.8854 69.0406 9.85975 73.8607 9.90678C75.3259 9.9196 76.8179 10.0051 78.2518 10.283C82.2588 11.0654 84.3852 14.4898 83.4203 18.5428C81.4369 26.8667 79.4043 35.182 77.4031 43.5016C77.278 44.0146 77.1708 44.5362 77.1217 45.0621C77.0323 46.0026 77.4567 46.6995 78.3233 47.1655C79.4937 47.794 79.4892 47.7982 79.0291 49.2262C77.1484 49.2262 75.2499 49.2262 73.3514 49.2262C70.8632 49.2262 68.375 49.2262 65.8913 49.2262C65.3999 49.2262 64.9041 49.2262 64.4216 49.1535C62.4874 48.8713 61.8396 48.1061 62.1747 46.2591C62.3936 45.0578 62.8358 43.8949 63.211 42.7235C63.3674 42.2361 63.6086 41.7744 63.6265 41.2058C63.5327 41.3127 63.4031 41.4025 63.3585 41.5265C62.5052 43.6769 60.973 45.4041 59.5793 47.2254C58.6054 48.4951 57.3144 49.1535 55.7375 49.4186C53.0796 49.8632 50.4261 49.9316 47.7771 49.3972C44.1454 48.6661 41.9654 46.5883 41.7957 43.0826C41.5276 37.5248 42.8856 32.2706 46.169 27.6234C48.3266 24.5666 51.601 23.3567 55.3846 23.331C58.1498 23.3097 60.9105 23.3139 63.6756 23.3054C64.2876 23.3054 64.9041 23.3097 65.5161 23.2797C67.3699 23.1899 68.6028 21.6979 68.1829 19.9621C68.0981 19.6158 67.6737 19.2354 67.3074 19.09C66.8473 18.9104 66.2844 18.9147 65.7707 18.9104C62.6392 18.8976 59.5078 18.9019 56.3719 18.9019C55.9743 18.9019 55.5723 18.9019 55.1747 18.8891C52.9411 18.7993 52.1147 17.8373 52.5436 15.751C52.9411 13.8229 53.4102 11.9119 53.8658 9.89823L53.8748 9.8854ZM63.7784 39.252C64.5601 36.1055 65.3151 33.0743 66.0298 30.1928C64.8951 30.1928 63.6443 30.1458 62.398 30.2056C61.0355 30.2698 59.6909 30.4579 58.8333 31.672C57.7433 33.2197 57.167 34.9298 57.1581 36.7895C57.1492 38.1747 57.6852 38.8331 59.1058 38.9955C60.6469 39.1708 62.2104 39.1708 63.7739 39.2478L63.7784 39.252Z" fill="#212529"/>
<path d="M87.6142 35.9088C87.9671 38.1833 89.6959 38.7305 91.7687 38.7305C94.8689 38.7305 97.969 38.7305 101.069 38.6236C102.776 38.568 103.553 37.7344 103.28 36.3748C103.182 35.8832 102.811 35.3274 102.387 35.0281C101.632 34.4937 100.761 34.0919 99.9033 33.7071C98.0182 32.8563 96.1107 32.0526 94.2122 31.2232C90.0756 29.4105 88.8829 27.4994 89.3028 23.1686C89.5842 20.2572 90.3303 17.4526 91.6347 14.7892C93.0731 11.8563 95.4764 10.2574 98.8267 10.0693C101.431 9.92393 104.04 9.90255 106.649 9.88545C110.794 9.85553 114.94 9.8769 119.085 9.8769H120.202C119.514 12.4506 118.906 14.9345 118.178 17.3842C117.763 18.7822 116.534 19.2098 115.15 19.2226C112.416 19.2482 109.682 19.2354 106.952 19.2525C106.372 19.2525 105.782 19.2739 105.21 19.3594C104.093 19.5261 103.406 20.1546 103.267 21.0695C103.12 22.0186 103.388 22.5316 104.549 23.0489C107.301 24.2759 110.097 25.4089 112.831 26.6615C113.984 27.1874 115.123 27.8158 116.106 28.5896C118.08 30.1373 118.384 32.3476 117.973 34.545C117.468 37.247 116.847 39.9618 115.913 42.5526C114.421 46.6867 111.076 48.7474 106.608 49.0125C103.213 49.2134 99.8006 49.1749 96.3921 49.2091C93.3232 49.239 90.2498 49.2262 87.1809 49.2091C83.8261 49.192 82.9238 48.0847 83.6832 44.9724C84.3175 42.373 84.9608 39.7737 85.5951 37.1743C85.8274 36.2224 86.5019 35.7977 87.6187 35.9003L87.6142 35.9088Z" fill="#212529"/>
<path d="M128.171 18.6028H124.432C124.83 16.9397 125.223 15.2852 125.625 13.6392C125.822 12.8397 125.795 11.8137 126.317 11.3177C126.786 10.8688 127.863 11.0227 128.667 10.8731C133.684 9.94966 137.601 7.5598 139.929 3.07935C140.188 2.58342 140.492 2.41669 141.059 2.42524C142.953 2.45516 144.852 2.43806 146.884 2.43806C146.196 5.02886 145.544 7.49567 144.887 9.96249H154.978C154.389 12.2326 153.857 14.49 153.214 16.7216C152.803 18.1538 151.592 18.6284 150.158 18.6626C148.653 18.6968 147.148 18.6712 145.647 18.7054C143.583 18.7524 142.832 19.2825 142.35 21.2235C141.121 26.1315 139.951 31.0523 138.763 35.9688C138.682 36.3108 138.651 36.6656 138.633 37.0162C138.575 38.3159 139.053 39.0256 140.393 39.1496C142.033 39.2992 143.695 39.265 145.347 39.2393C146.504 39.2222 147.246 38.551 147.76 37.5891C148.434 36.3322 148.452 36.3407 150.132 36.5673C149.944 37.3326 149.756 38.085 149.569 38.8417C148.988 41.2145 148.421 43.5873 147.818 45.9515C147.112 48.7261 146.469 49.2135 143.498 49.222C138.584 49.2349 133.67 49.2349 128.756 49.222C127.747 49.222 126.724 49.2049 125.728 49.0724C122.878 48.6833 121.529 47.0759 121.993 44.344C122.458 41.6249 123.15 38.9443 123.793 36.2552C125.031 31.0779 126.3 25.9091 127.564 20.7361C127.738 20.0264 127.966 19.3253 128.171 18.6113V18.6028Z" fill="#212529"/>
<path d="M290.574 18.6027H286.826C287.085 17.5253 287.339 16.4565 287.599 15.3877C287.889 14.1864 288.228 12.9978 288.465 11.7837C288.572 11.2279 288.836 11.0825 289.376 11.0526C292.651 10.8602 295.586 9.79141 298.226 7.92313C299.999 6.67049 301.299 5.05444 302.255 3.18616C302.563 2.58763 302.93 2.40807 303.6 2.42517C305.436 2.46792 307.276 2.44227 309.269 2.44227C308.585 5.04162 307.928 7.52553 307.285 9.96669H317.385C316.764 12.3053 316.215 14.6438 315.505 16.9353C315.089 18.2863 313.829 18.6369 312.489 18.6668C311.046 18.701 309.604 18.6754 308.161 18.701C305.958 18.7438 305.23 19.2482 304.721 21.2747C303.501 26.1528 302.336 31.0479 301.156 35.9345C301.094 36.191 301.062 36.4561 301.045 36.7169C300.906 38.3586 301.38 39.0383 303.113 39.2051C304.6 39.3504 306.115 39.2906 307.616 39.2564C308.84 39.2307 309.644 38.5723 310.18 37.5377C310.819 36.3022 310.939 36.2723 312.521 36.5929C311.931 38.987 311.346 41.3812 310.743 43.7753C310.448 44.9424 310.144 46.1096 309.796 47.2682C309.465 48.3669 308.683 48.9996 307.482 49.1194C306.995 49.1664 306.503 49.222 306.016 49.222C300.611 49.2305 295.206 49.2433 289.801 49.2091C288.889 49.2049 287.96 49.0723 287.08 48.85C285.468 48.4396 284.413 47.3879 284.4 45.7761C284.387 44.3867 284.583 42.963 284.9 41.6035C286.562 34.5622 288.291 27.5379 290.002 20.5052C290.158 19.8596 290.382 19.2311 290.569 18.607L290.574 18.6027Z" fill="#212529"/>
<path d="M285.289 9.98371C284.597 12.5446 283.936 15.1054 283.207 17.6449C282.957 18.5128 282.252 19.0258 281.304 19.0729C279.741 19.1498 278.178 19.1712 276.614 19.2011C275.234 19.2268 273.849 19.1926 272.469 19.2482C270.096 19.3422 268.305 20.3811 267.532 22.5657C266.791 24.6734 266.223 26.841 265.683 29.0085C265.232 30.7999 264.767 32.6126 264.602 34.4424C264.374 36.9733 265.491 38.3542 268.144 38.5551C270.753 38.7475 273.402 38.5637 276.029 38.4269C277.128 38.3713 278.16 37.7984 278.655 36.8365C279.2 35.7891 280.005 35.8489 281.081 35.9729C280.934 36.5971 280.795 37.1785 280.657 37.7642C280.139 39.9104 279.629 42.0523 279.098 44.1942C278.2 47.841 276.891 49.0808 273.022 49.5169C267.635 50.1282 262.239 50.1966 256.883 49.1962C255.779 48.991 254.68 48.649 253.649 48.2215C250.352 46.8619 249.056 44.2498 248.904 40.9835C248.744 37.512 249.373 34.1174 250.329 30.8041C251.509 26.7084 252.795 22.6341 254.31 18.6411C254.975 16.8882 256.164 15.2594 257.374 13.7673C259.679 10.9285 263.007 9.98798 266.599 9.93668C272.71 9.85545 278.821 9.89393 284.932 9.88538C285.017 9.88538 285.102 9.92813 285.289 9.97516V9.98371Z" fill="#212529"/>
<path d="M332.408 49.2049C327.583 49.2049 322.884 49.2605 318.193 49.1835C315.812 49.1451 315.044 48.072 315.504 45.8403C315.576 45.494 315.661 45.152 315.745 44.81C318.131 34.8273 320.521 24.8489 322.902 14.8662C323.308 13.1603 323.018 12.5319 321.392 11.7324C320.807 11.446 320.99 11.1082 321.088 10.7192C321.191 10.313 321.146 9.86413 321.861 9.87268C326.283 9.90688 330.701 9.89406 335.124 9.90688C335.428 9.90688 335.736 9.96246 336.035 10.0138C337.871 10.3088 338.523 11.0013 338.17 12.72C337.469 16.1445 336.638 19.5433 335.825 22.9464C334.119 30.0946 332.386 37.2385 330.679 44.391C330.304 45.9557 330.625 46.6141 332.095 47.3324C333.145 47.8454 332.332 48.538 332.412 49.2135L332.408 49.2049Z" fill="#212529"/>
<path d="M326.538 0.137849C330.545 0.137849 334.498 0.0437934 338.443 0.180601C340.292 0.24473 340.864 1.16818 340.547 2.95096C340.288 4.39171 339.939 5.81964 339.573 7.2433C339.519 7.45279 339.153 7.73923 338.93 7.73923C335.311 7.76488 331.693 7.79908 328.074 7.73068C325.979 7.6922 325.037 6.42245 325.488 4.48149C325.814 3.07921 326.145 1.68121 326.475 0.278932C326.493 0.197702 326.547 0.125023 326.538 0.142124V0.137849Z" fill="#212529"/>
</svg>
