<svg width="15" height="9" viewBox="0 0 15 9" fill="none" xmlns="http://www.w3.org/2000/svg">
<path fill-rule="evenodd" clip-rule="evenodd" d="M0.5 4.50063C0.5 4.36802 0.552678 4.24085 0.646447 4.14708C0.740215 4.05331 0.867392 4.00063 1 4.00063H12.793L9.646 0.854632C9.55211 0.760745 9.49937 0.633407 9.49937 0.500632C9.49937 0.367856 9.55211 0.240518 9.646 0.146631C9.73989 0.0527448 9.86722 3.1283e-09 10 0C10.1328 -3.1283e-09 10.2601 0.0527449 10.354 0.146631L14.354 4.14663C14.4006 4.19308 14.4375 4.24825 14.4627 4.309C14.4879 4.36974 14.5009 4.43486 14.5009 4.50063C14.5009 4.5664 14.4879 4.63152 14.4627 4.69226C14.4375 4.75301 14.4006 4.80819 14.354 4.85463L10.354 8.85463C10.2601 8.94852 10.1328 9.00126 10 9.00126C9.86722 9.00126 9.73989 8.94852 9.646 8.85463C9.55211 8.76075 9.49937 8.63341 9.49937 8.50063C9.49937 8.36786 9.55211 8.24052 9.646 8.14663L12.793 5.00063H1C0.867392 5.00063 0.740215 4.94795 0.646447 4.85419C0.552678 4.76042 0.5 4.63324 0.5 4.50063Z" fill="#F8F9FA"/>
</svg>
