<svg width="15" height="9" viewBox="0 0 15 9" fill="none" xmlns="http://www.w3.org/2000/svg">
<path fill-rule="evenodd" clip-rule="evenodd" d="M14.5009 4.50063C14.5009 4.36802 14.4482 4.24085 14.3544 4.14708C14.2607 4.05331 14.1335 4.00063 14.0009 4.00063H2.20789L5.35489 0.854632C5.40138 0.808144 5.43826 0.752955 5.46342 0.692215C5.48858 0.631476 5.50153 0.566375 5.50153 0.500632C5.50153 0.434888 5.48858 0.369788 5.46342 0.309048C5.43826 0.248309 5.40138 0.193119 5.35489 0.146631C5.30841 0.100144 5.25322 0.0632674 5.19248 0.0381083C5.13174 0.0129493 5.06664 0 5.00089 0C4.93515 0 4.87005 0.0129493 4.80931 0.0381083C4.74857 0.0632674 4.69338 0.100144 4.64689 0.146631L0.646894 4.14663C0.600331 4.19308 0.563388 4.24825 0.538181 4.309C0.512975 4.36974 0.5 4.43486 0.5 4.50063C0.5 4.5664 0.512975 4.63152 0.538181 4.69226C0.563388 4.75301 0.600331 4.80819 0.646894 4.85463L4.64689 8.85463C4.69338 8.90112 4.74857 8.938 4.80931 8.96315C4.87005 8.98831 4.93515 9.00126 5.00089 9.00126C5.06664 9.00126 5.13174 8.98831 5.19248 8.96315C5.25322 8.938 5.30841 8.90112 5.35489 8.85463C5.40138 8.80814 5.43826 8.75295 5.46342 8.69221C5.48858 8.63148 5.50153 8.56637 5.50153 8.50063C5.50153 8.43489 5.48858 8.36979 5.46342 8.30905C5.43826 8.24831 5.40138 8.19312 5.35489 8.14663L2.20789 5.00063H14.0009C14.1335 5.00063 14.2607 4.94795 14.3544 4.85419C14.4482 4.76042 14.5009 4.63324 14.5009 4.50063Z" fill="#F8F9FA"/>
</svg>
