<svg width="16" height="17" viewBox="0 0 16 17" fill="none" xmlns="http://www.w3.org/2000/svg">
<g clip-path="url(#clip0_9637_10173)">
<rect width="16" height="16" transform="translate(0 0.5)" fill="white" fill-opacity="0.01"/>
<path d="M1 2.5C1 2.23478 1.10536 1.98043 1.29289 1.79289C1.48043 1.60536 1.73478 1.5 2 1.5H4C4.26522 1.5 4.51957 1.60536 4.70711 1.79289C4.89464 1.98043 5 2.23478 5 2.5V4.5C5 4.76522 4.89464 5.01957 4.70711 5.20711C4.51957 5.39464 4.26522 5.5 4 5.5H2C1.73478 5.5 1.48043 5.39464 1.29289 5.20711C1.10536 5.01957 1 4.76522 1 4.5V2.5ZM6 2.5C6 2.23478 6.10536 1.98043 6.29289 1.79289C6.48043 1.60536 6.73478 1.5 7 1.5H9C9.26522 1.5 9.51957 1.60536 9.70711 1.79289C9.89464 1.98043 10 2.23478 10 2.5V4.5C10 4.76522 9.89464 5.01957 9.70711 5.20711C9.51957 5.39464 9.26522 5.5 9 5.5H7C6.73478 5.5 6.48043 5.39464 6.29289 5.20711C6.10536 5.01957 6 4.76522 6 4.5V2.5ZM11 2.5C11 2.23478 11.1054 1.98043 11.2929 1.79289C11.4804 1.60536 11.7348 1.5 12 1.5H14C14.2652 1.5 14.5196 1.60536 14.7071 1.79289C14.8946 1.98043 15 2.23478 15 2.5V4.5C15 4.76522 14.8946 5.01957 14.7071 5.20711C14.5196 5.39464 14.2652 5.5 14 5.5H12C11.7348 5.5 11.4804 5.39464 11.2929 5.20711C11.1054 5.01957 11 4.76522 11 4.5V2.5ZM1 7.5C1 7.23478 1.10536 6.98043 1.29289 6.79289C1.48043 6.60536 1.73478 6.5 2 6.5H4C4.26522 6.5 4.51957 6.60536 4.70711 6.79289C4.89464 6.98043 5 7.23478 5 7.5V9.5C5 9.76522 4.89464 10.0196 4.70711 10.2071C4.51957 10.3946 4.26522 10.5 4 10.5H2C1.73478 10.5 1.48043 10.3946 1.29289 10.2071C1.10536 10.0196 1 9.76522 1 9.5V7.5ZM6 7.5C6 7.23478 6.10536 6.98043 6.29289 6.79289C6.48043 6.60536 6.73478 6.5 7 6.5H9C9.26522 6.5 9.51957 6.60536 9.70711 6.79289C9.89464 6.98043 10 7.23478 10 7.5V9.5C10 9.76522 9.89464 10.0196 9.70711 10.2071C9.51957 10.3946 9.26522 10.5 9 10.5H7C6.73478 10.5 6.48043 10.3946 6.29289 10.2071C6.10536 10.0196 6 9.76522 6 9.5V7.5ZM11 7.5C11 7.23478 11.1054 6.98043 11.2929 6.79289C11.4804 6.60536 11.7348 6.5 12 6.5H14C14.2652 6.5 14.5196 6.60536 14.7071 6.79289C14.8946 6.98043 15 7.23478 15 7.5V9.5C15 9.76522 14.8946 10.0196 14.7071 10.2071C14.5196 10.3946 14.2652 10.5 14 10.5H12C11.7348 10.5 11.4804 10.3946 11.2929 10.2071C11.1054 10.0196 11 9.76522 11 9.5V7.5ZM1 12.5C1 12.2348 1.10536 11.9804 1.29289 11.7929C1.48043 11.6054 1.73478 11.5 2 11.5H4C4.26522 11.5 4.51957 11.6054 4.70711 11.7929C4.89464 11.9804 5 12.2348 5 12.5V14.5C5 14.7652 4.89464 15.0196 4.70711 15.2071C4.51957 15.3946 4.26522 15.5 4 15.5H2C1.73478 15.5 1.48043 15.3946 1.29289 15.2071C1.10536 15.0196 1 14.7652 1 14.5V12.5ZM6 12.5C6 12.2348 6.10536 11.9804 6.29289 11.7929C6.48043 11.6054 6.73478 11.5 7 11.5H9C9.26522 11.5 9.51957 11.6054 9.70711 11.7929C9.89464 11.9804 10 12.2348 10 12.5V14.5C10 14.7652 9.89464 15.0196 9.70711 15.2071C9.51957 15.3946 9.26522 15.5 9 15.5H7C6.73478 15.5 6.48043 15.3946 6.29289 15.2071C6.10536 15.0196 6 14.7652 6 14.5V12.5ZM11 12.5C11 12.2348 11.1054 11.9804 11.2929 11.7929C11.4804 11.6054 11.7348 11.5 12 11.5H14C14.2652 11.5 14.5196 11.6054 14.7071 11.7929C14.8946 11.9804 15 12.2348 15 12.5V14.5C15 14.7652 14.8946 15.0196 14.7071 15.2071C14.5196 15.3946 14.2652 15.5 14 15.5H12C11.7348 15.5 11.4804 15.3946 11.2929 15.2071C11.1054 15.0196 11 14.7652 11 14.5V12.5Z" fill="#F8F9FA"/>
</g>
<defs>
<clipPath id="clip0_9637_10173">
<rect width="16" height="16" fill="white" transform="translate(0 0.5)"/>
</clipPath>
</defs>
</svg>
