<svg width="16" height="17" viewBox="0 0 16 17" fill="none" xmlns="http://www.w3.org/2000/svg">
<g clip-path="url(#clip0_9637_19093)">
<rect width="16" height="16" transform="translate(0 0.5)" fill="white" fill-opacity="0.01"/>
<path d="M1 3C1 2.60218 1.15804 2.22064 1.43934 1.93934C1.72064 1.65804 2.10218 1.5 2.5 1.5H5.5C5.89782 1.5 6.27936 1.65804 6.56066 1.93934C6.84196 2.22064 7 2.60218 7 3V6C7 6.39782 6.84196 6.77936 6.56066 7.06066C6.27936 7.34196 5.89782 7.5 5.5 7.5H2.5C2.10218 7.5 1.72064 7.34196 1.43934 7.06066C1.15804 6.77936 1 6.39782 1 6V3ZM9 3C9 2.60218 9.15804 2.22064 9.43934 1.93934C9.72064 1.65804 10.1022 1.5 10.5 1.5H13.5C13.8978 1.5 14.2794 1.65804 14.5607 1.93934C14.842 2.22064 15 2.60218 15 3V6C15 6.39782 14.842 6.77936 14.5607 7.06066C14.2794 7.34196 13.8978 7.5 13.5 7.5H10.5C10.1022 7.5 9.72064 7.34196 9.43934 7.06066C9.15804 6.77936 9 6.39782 9 6V3ZM1 11C1 10.6022 1.15804 10.2206 1.43934 9.93934C1.72064 9.65804 2.10218 9.5 2.5 9.5H5.5C5.89782 9.5 6.27936 9.65804 6.56066 9.93934C6.84196 10.2206 7 10.6022 7 11V14C7 14.3978 6.84196 14.7794 6.56066 15.0607C6.27936 15.342 5.89782 15.5 5.5 15.5H2.5C2.10218 15.5 1.72064 15.342 1.43934 15.0607C1.15804 14.7794 1 14.3978 1 14V11ZM9 11C9 10.6022 9.15804 10.2206 9.43934 9.93934C9.72064 9.65804 10.1022 9.5 10.5 9.5H13.5C13.8978 9.5 14.2794 9.65804 14.5607 9.93934C14.842 10.2206 15 10.6022 15 11V14C15 14.3978 14.842 14.7794 14.5607 15.0607C14.2794 15.342 13.8978 15.5 13.5 15.5H10.5C10.1022 15.5 9.72064 15.342 9.43934 15.0607C9.15804 14.7794 9 14.3978 9 14V11Z" fill="#F8F9FA"/>
</g>
<defs>
<clipPath id="clip0_9637_19093">
<rect width="16" height="16" fill="white" transform="translate(0 0.5)"/>
</clipPath>
</defs>
</svg>
