<svg width="25" height="24" viewBox="0 0 25 24" fill="none" xmlns="http://www.w3.org/2000/svg">
<path fill-rule="evenodd" clip-rule="evenodd" d="M16.531 10.719C16.6008 10.7887 16.6563 10.8714 16.6941 10.9625C16.7319 11.0537 16.7513 11.1513 16.7513 11.25C16.7513 11.3487 16.7319 11.4463 16.6941 11.5375C16.6563 11.6286 16.6008 11.7113 16.531 11.781L12.031 16.281C11.9613 16.3508 11.8786 16.4063 11.7875 16.4441C11.6963 16.4819 11.5987 16.5013 11.5 16.5013C11.4013 16.5013 11.3037 16.4819 11.2125 16.4441C11.1214 16.4063 11.0387 16.3508 10.969 16.281L8.719 14.031C8.64927 13.9613 8.59395 13.8785 8.55621 13.7874C8.51848 13.6963 8.49905 13.5986 8.49905 13.5C8.49905 13.4014 8.51848 13.3037 8.55621 13.2126C8.59395 13.1215 8.64927 13.0387 8.719 12.969C8.85983 12.8282 9.05084 12.7491 9.25 12.7491C9.34862 12.7491 9.44627 12.7685 9.53738 12.8062C9.62848 12.844 9.71127 12.8993 9.781 12.969L11.5 14.6895L15.469 10.719C15.5387 10.6492 15.6214 10.5937 15.7126 10.5559C15.8037 10.5181 15.9013 10.4987 16 10.4987C16.0987 10.4987 16.1963 10.5181 16.2874 10.5559C16.3786 10.5937 16.4613 10.6492 16.531 10.719Z" fill="#212529"/>
<path d="M6.25 2.25H4.75C3.95435 2.25 3.19129 2.56607 2.62868 3.12868C2.06607 3.69129 1.75 4.45435 1.75 5.25V21C1.75 21.7956 2.06607 22.5587 2.62868 23.1213C3.19129 23.6839 3.95435 24 4.75 24H19.75C20.5456 24 21.3087 23.6839 21.8713 23.1213C22.4339 22.5587 22.75 21.7956 22.75 21V5.25C22.75 4.45435 22.4339 3.69129 21.8713 3.12868C21.3087 2.56607 20.5456 2.25 19.75 2.25H18.25V3.75H19.75C20.1478 3.75 20.5294 3.90804 20.8107 4.18934C21.092 4.47064 21.25 4.85218 21.25 5.25V21C21.25 21.3978 21.092 21.7794 20.8107 22.0607C20.5294 22.342 20.1478 22.5 19.75 22.5H4.75C4.35218 22.5 3.97064 22.342 3.68934 22.0607C3.40804 21.7794 3.25 21.3978 3.25 21V5.25C3.25 4.85218 3.40804 4.47064 3.68934 4.18934C3.97064 3.90804 4.35218 3.75 4.75 3.75H6.25V2.25Z" fill="#212529"/>
<path d="M14.5 1.5C14.6989 1.5 14.8897 1.57902 15.0303 1.71967C15.171 1.86032 15.25 2.05109 15.25 2.25V3.75C15.25 3.94891 15.171 4.13968 15.0303 4.28033C14.8897 4.42098 14.6989 4.5 14.5 4.5H10C9.80109 4.5 9.61032 4.42098 9.46967 4.28033C9.32902 4.13968 9.25 3.94891 9.25 3.75V2.25C9.25 2.05109 9.32902 1.86032 9.46967 1.71967C9.61032 1.57902 9.80109 1.5 10 1.5H14.5ZM10 0C9.40326 0 8.83097 0.237053 8.40901 0.65901C7.98705 1.08097 7.75 1.65326 7.75 2.25V3.75C7.75 4.34674 7.98705 4.91903 8.40901 5.34099C8.83097 5.76295 9.40326 6 10 6H14.5C15.0967 6 15.669 5.76295 16.091 5.34099C16.5129 4.91903 16.75 4.34674 16.75 3.75V2.25C16.75 1.65326 16.5129 1.08097 16.091 0.65901C15.669 0.237053 15.0967 0 14.5 0H10Z" fill="#212529"/>
</svg>
