<svg width="25" height="24" viewBox="0 0 25 24" fill="none" xmlns="http://www.w3.org/2000/svg">
<g clip-path="url(#clip0_4875_28978)">
<path d="M17.25 8.25C17.25 8.05109 17.329 7.86032 17.4697 7.71967C17.6103 7.57902 17.8011 7.5 18 7.5H21C21.1989 7.5 21.3897 7.57902 21.5303 7.71967C21.671 7.86032 21.75 8.05109 21.75 8.25V9.75C21.75 9.94891 21.671 10.1397 21.5303 10.2803C21.3897 10.421 21.1989 10.5 21 10.5H18C17.8011 10.5 17.6103 10.421 17.4697 10.2803C17.329 10.1397 17.25 9.94891 17.25 9.75V8.25Z" fill="#212529"/>
<path d="M3.75 3C2.95435 3 2.19129 3.31607 1.62868 3.87868C1.06607 4.44129 0.75 5.20435 0.75 6V18C0.75 18.7956 1.06607 19.5587 1.62868 20.1213C2.19129 20.6839 2.95435 21 3.75 21H21.75C22.5456 21 23.3087 20.6839 23.8713 20.1213C24.4339 19.5587 24.75 18.7956 24.75 18V6C24.75 5.20435 24.4339 4.44129 23.8713 3.87868C23.3087 3.31607 22.5456 3 21.75 3H3.75ZM23.25 6V13.5H2.25V6C2.25 5.60218 2.40804 5.22064 2.68934 4.93934C2.97064 4.65804 3.35218 4.5 3.75 4.5H21.75C22.1478 4.5 22.5294 4.65804 22.8107 4.93934C23.092 5.22064 23.25 5.60218 23.25 6ZM21.75 19.5H3.75C3.35218 19.5 2.97064 19.342 2.68934 19.0607C2.40804 18.7794 2.25 18.3978 2.25 18V16.5H23.25V18C23.25 18.3978 23.092 18.7794 22.8107 19.0607C22.5294 19.342 22.1478 19.5 21.75 19.5Z" fill="#212529"/>
</g>
<defs>
<clipPath id="clip0_4875_28978">
<rect width="24" height="24" fill="white" transform="translate(0.75)"/>
</clipPath>
</defs>
</svg>
