<svg width="27" height="26" viewBox="0 0 27 26" fill="none" xmlns="http://www.w3.org/2000/svg">
<path fill-rule="evenodd" clip-rule="evenodd" d="M11.945 2H14.055C15.422 2 16.525 2 17.392 2.117C18.292 2.237 19.05 2.497 19.652 3.098C19.95 3.397 20.164 3.734 20.319 4.108C21.251 4.224 22.034 4.48 22.652 5.098C23.254 5.7 23.512 6.458 23.634 7.358C23.75 8.225 23.75 9.328 23.75 10.695V14.805C23.75 16.172 23.75 17.275 23.634 18.142C23.512 19.042 23.254 19.8 22.652 20.402C22.034 21.02 21.252 21.276 20.319 21.393C20.164 21.766 19.95 22.103 19.652 22.402C19.05 23.004 18.292 23.262 17.392 23.384C16.525 23.5 15.422 23.5 14.055 23.5H11.945C10.578 23.5 9.475 23.5 8.608 23.384C7.708 23.262 6.95 23.004 6.348 22.402C6.06066 22.1135 5.83389 21.7704 5.681 21.393C4.749 21.276 3.966 21.02 3.348 20.402C2.746 19.8 2.488 19.042 2.367 18.142C2.25 17.275 2.25 16.172 2.25 14.805V10.695C2.25 9.328 2.25 8.225 2.367 7.358C2.487 6.458 2.747 5.7 3.348 5.098C3.966 4.48 4.748 4.224 5.681 4.108C5.83411 3.73041 6.06085 3.38707 6.348 3.098C6.95 2.496 7.708 2.238 8.608 2.117C9.475 2 10.578 2 11.945 2ZM5.328 5.69C4.891 5.796 4.618 5.95 4.409 6.16C4.132 6.436 3.952 6.824 3.853 7.558C3.752 8.314 3.75 9.315 3.75 10.75V14.75C3.75 16.185 3.752 17.187 3.853 17.942C3.952 18.676 4.133 19.064 4.409 19.341C4.618 19.55 4.891 19.704 5.329 19.81C5.25 18.998 5.25 18.004 5.25 16.805V8.695C5.25 7.497 5.25 6.502 5.328 5.69ZM20.672 19.81C21.109 19.704 21.382 19.55 21.591 19.341C21.868 19.064 22.048 18.676 22.147 17.941C22.248 17.187 22.25 16.186 22.25 14.751V10.751C22.25 9.315 22.248 8.314 22.147 7.558C22.048 6.824 21.867 6.436 21.591 6.159C21.382 5.95 21.109 5.796 20.671 5.69C20.75 6.502 20.75 7.497 20.75 8.695V16.805C20.75 18.003 20.75 18.998 20.672 19.81ZM8.808 3.603C8.074 3.702 7.686 3.883 7.409 4.159C7.132 4.436 6.952 4.824 6.853 5.559C6.752 6.312 6.75 7.314 6.75 8.75V16.75C6.75 18.185 6.752 19.186 6.853 19.942C6.952 20.676 7.133 21.064 7.409 21.341C7.686 21.618 8.074 21.798 8.809 21.897C9.563 21.998 10.565 22 12 22H14C15.435 22 16.437 21.998 17.192 21.897C17.926 21.798 18.314 21.617 18.591 21.341C18.868 21.064 19.048 20.676 19.147 19.941C19.248 19.186 19.25 18.185 19.25 16.75V8.75C19.25 7.315 19.248 6.313 19.147 5.558C19.048 4.824 18.867 4.436 18.591 4.159C18.314 3.882 17.926 3.702 17.191 3.603C16.437 3.502 15.435 3.5 14 3.5H12C10.565 3.5 9.563 3.502 8.808 3.603ZM9.25 9.75C9.25 9.55109 9.32902 9.36032 9.46967 9.21967C9.61032 9.07902 9.80109 9 10 9H16C16.1989 9 16.3897 9.07902 16.5303 9.21967C16.671 9.36032 16.75 9.55109 16.75 9.75C16.75 9.94891 16.671 10.1397 16.5303 10.2803C16.3897 10.421 16.1989 10.5 16 10.5H10C9.80109 10.5 9.61032 10.421 9.46967 10.2803C9.32902 10.1397 9.25 9.94891 9.25 9.75ZM9.25 13.75C9.25 13.5511 9.32902 13.3603 9.46967 13.2197C9.61032 13.079 9.80109 13 10 13H16C16.1989 13 16.3897 13.079 16.5303 13.2197C16.671 13.3603 16.75 13.5511 16.75 13.75C16.75 13.9489 16.671 14.1397 16.5303 14.2803C16.3897 14.421 16.1989 14.5 16 14.5H10C9.80109 14.5 9.61032 14.421 9.46967 14.2803C9.32902 14.1397 9.25 13.9489 9.25 13.75ZM9.25 17.75C9.25 17.5511 9.32902 17.3603 9.46967 17.2197C9.61032 17.079 9.80109 17 10 17H13C13.1989 17 13.3897 17.079 13.5303 17.2197C13.671 17.3603 13.75 17.5511 13.75 17.75C13.75 17.9489 13.671 18.1397 13.5303 18.2803C13.3897 18.421 13.1989 18.5 13 18.5H10C9.80109 18.5 9.61032 18.421 9.46967 18.2803C9.32902 18.1397 9.25 17.9489 9.25 17.75Z" fill="white"/>
</svg>
