<svg width="22" height="12" viewBox="0 0 22 12" fill="none" xmlns="http://www.w3.org/2000/svg">
<path fill-rule="evenodd" clip-rule="evenodd" d="M4.469 0.220341C4.53867 0.150496 4.62143 0.0950813 4.71255 0.0572716C4.80367 0.0194619 4.90135 0 5 0C5.09865 0 5.19633 0.0194619 5.28745 0.0572716C5.37857 0.0950813 5.46133 0.150496 5.531 0.220341L11 5.69084L16.469 0.220341C16.6098 0.0795107 16.8008 0.000393389 17 0.000393391C17.1992 0.000393392 17.3902 0.0795107 17.531 0.220341C17.6718 0.361171 17.7509 0.552177 17.7509 0.751341C17.7509 0.950504 17.6718 1.14151 17.531 1.28234L11.531 7.28234C11.4613 7.35219 11.3786 7.4076 11.2874 7.44541C11.1963 7.48322 11.0987 7.50268 11 7.50268C10.9013 7.50268 10.8037 7.48322 10.7125 7.44541C10.6214 7.4076 10.5387 7.35219 10.469 7.28234L4.469 1.28234C4.39915 1.21267 4.34374 1.12991 4.30593 1.03879C4.26812 0.947674 4.24866 0.849992 4.24866 0.751341C4.24866 0.65269 4.26812 0.555008 4.30593 0.46389C4.34374 0.372772 4.39915 0.290009 4.469 0.220341ZM0.5 11.2513C0.5 11.0524 0.579018 10.8617 0.71967 10.721C0.860322 10.5804 1.05109 10.5013 1.25 10.5013H20.75C20.9489 10.5013 21.1397 10.5804 21.2803 10.721C21.421 10.8617 21.5 11.0524 21.5 11.2513C21.5 11.4503 21.421 11.641 21.2803 11.7817C21.1397 11.9223 20.9489 12.0013 20.75 12.0013H1.25C1.05109 12.0013 0.860322 11.9223 0.71967 11.7817C0.579018 11.641 0.5 11.4503 0.5 11.2513Z" fill="white"/>
</svg>
