<svg width="12" height="13" viewBox="0 0 12 13" fill="none" xmlns="http://www.w3.org/2000/svg">
  <path fill-rule="evenodd" clip-rule="evenodd"
    d="M8.51617 1.73517C8.55109 1.77 8.5788 1.81139 8.5977 1.85695C8.61661 1.9025 8.62634 1.95134 8.62634 2.00067C8.62634 2.05 8.61661 2.09884 8.5977 2.1444C8.5788 2.18995 8.55109 2.23134 8.51617 2.26617L4.28092 6.50067L8.51617 10.7352C8.58659 10.8056 8.62614 10.9011 8.62614 11.0007C8.62614 11.1003 8.58659 11.1958 8.51617 11.2662C8.44576 11.3366 8.35025 11.3761 8.25067 11.3761C8.15109 11.3761 8.05558 11.3366 7.98517 11.2662L3.48517 6.76617C3.45025 6.73134 3.42254 6.68995 3.40364 6.64439C3.38473 6.59884 3.375 6.55 3.375 6.50067C3.375 6.45134 3.38473 6.4025 3.40364 6.35695C3.42254 6.31139 3.45025 6.27 3.48517 6.23517L7.98517 1.73517C8.02 1.70025 8.06139 1.67254 8.10695 1.65364C8.1525 1.63473 8.20134 1.625 8.25067 1.625C8.3 1.625 8.34884 1.63473 8.39439 1.65364C8.43995 1.67254 8.48134 1.70025 8.51617 1.73517Z"
    fill="#fff" />
</svg>