<svg width="21" height="20" viewBox="0 0 21 20" fill="none" xmlns="http://www.w3.org/2000/svg">
<path fill-rule="evenodd" clip-rule="evenodd" d="M10.5 0C11.1904 0 11.75 0.447715 11.75 1V16.5858L18.3661 11.2929C18.8543 10.9024 19.6457 10.9024 20.1339 11.2929C20.622 11.6834 20.622 12.3166 20.1339 12.7071L11.3839 19.7071C11.1495 19.8946 10.8315 20 10.5 20C10.1685 20 9.85054 19.8946 9.61612 19.7071L0.866116 12.7071C0.377961 12.3166 0.377961 11.6834 0.866117 11.2929C1.35427 10.9024 2.14573 10.9024 2.63388 11.2929L9.25 16.5858L9.25 1C9.25 0.447715 9.80964 0 10.5 0Z" fill="#DADADA"/>
</svg>
