<svg width="12" height="13" viewBox="0 0 12 13" fill="none" xmlns="http://www.w3.org/2000/svg">
  <path fill-rule="evenodd" clip-rule="evenodd"
    d="M3.48517 1.73517C3.52 1.70025 3.56139 1.67254 3.60694 1.65364C3.6525 1.63473 3.70134 1.625 3.75067 1.625C3.8 1.625 3.84884 1.63473 3.8944 1.65364C3.93995 1.67254 3.98134 1.70025 4.01617 1.73517L8.51617 6.23517C8.55109 6.27 8.5788 6.31139 8.5977 6.35695C8.61661 6.4025 8.62634 6.45134 8.62634 6.50067C8.62634 6.55 8.61661 6.59884 8.5977 6.64439C8.5788 6.68995 8.55109 6.73134 8.51617 6.76617L4.01617 11.2662C3.94576 11.3366 3.85025 11.3761 3.75067 11.3761C3.65109 11.3761 3.55559 11.3366 3.48517 11.2662C3.41476 11.1958 3.3752 11.1003 3.3752 11.0007C3.3752 10.9011 3.41476 10.8056 3.48517 10.7352L7.72042 6.50067L3.48517 2.26617C3.45025 2.23134 3.42254 2.18995 3.40364 2.1444C3.38473 2.09884 3.375 2.05 3.375 2.00067C3.375 1.95134 3.38473 1.9025 3.40364 1.85695C3.42254 1.81139 3.45025 1.77 3.48517 1.73517Z"
    fill="#fff" />
</svg>