<svg width="14" height="15" viewBox="0 0 14 15" fill="none" xmlns="http://www.w3.org/2000/svg">
<path fill-rule="evenodd" clip-rule="evenodd" d="M1.75219 4.4375C1.75219 4.60986 1.78614 4.78053 1.8521 4.93977C1.91806 5.09901 2.01474 5.2437 2.13662 5.36558C2.25849 5.48745 2.40318 5.58413 2.56242 5.65009C2.72166 5.71605 2.89233 5.75 3.06469 5.75C3.23705 5.75 3.40773 5.71605 3.56697 5.65009C3.72621 5.58413 3.87089 5.48745 3.99277 5.36558C4.11465 5.2437 4.21133 5.09901 4.27729 4.93977C4.34324 4.78053 4.37719 4.60986 4.37719 4.4375C4.37719 4.0894 4.23891 3.75556 3.99277 3.50942C3.74663 3.26328 3.41279 3.125 3.06469 3.125C2.7166 3.125 2.38276 3.26328 2.13662 3.50942C1.89047 3.75556 1.75219 4.0894 1.75219 4.4375ZM2.62719 6.58125C2.13269 6.48084 1.68811 6.21256 1.36878 5.82186C1.04945 5.43117 0.875 4.94209 0.875 4.4375C0.875 3.93291 1.04945 3.44383 1.36878 3.05314C1.68811 2.66244 2.13269 2.39416 2.62719 2.29375V0.5H3.50219V2.29375C3.99669 2.39416 4.44128 2.66244 4.76061 3.05314C5.07994 3.44383 5.25439 3.93291 5.25439 4.4375C5.25439 4.94209 5.07994 5.43117 4.76061 5.82186C4.44128 6.21256 3.99669 6.48084 3.50219 6.58125L3.50219 14.5H2.62719L2.62719 6.58125ZM6.12719 10.5625C6.12719 10.9106 6.26547 11.2444 6.51162 11.4906C6.75776 11.7367 7.0916 11.875 7.43969 11.875C7.78779 11.875 8.12163 11.7367 8.36777 11.4906C8.61391 11.2444 8.75219 10.9106 8.75219 10.5625C8.75219 10.2144 8.61391 9.88056 8.36777 9.63442C8.12163 9.38828 7.78779 9.25 7.43969 9.25C7.0916 9.25 6.75776 9.38828 6.51162 9.63442C6.26547 9.88056 6.12719 10.2144 6.12719 10.5625ZM7.00219 12.7063C6.50769 12.6058 6.06311 12.3376 5.74378 11.9469C5.42445 11.5562 5.25 11.0671 5.25 10.5625C5.25 10.0579 5.42445 9.56883 5.74378 9.17814C6.06311 8.78744 6.50769 8.51916 7.00219 8.41875L7.00219 0.5H7.87719L7.87719 8.41875C8.37169 8.51916 8.81628 8.78744 9.13561 9.17814C9.45494 9.56883 9.62939 10.0579 9.62939 10.5625C9.62939 11.0671 9.45494 11.5562 9.13561 11.9469C8.81628 12.3376 8.37169 12.6058 7.87719 12.7063V14.5H7.00219V12.7063ZM10.5022 4.4375C10.5022 4.7856 10.6405 5.11944 10.8866 5.36558C11.1328 5.61172 11.4666 5.75 11.8147 5.75C12.1628 5.75 12.4966 5.61172 12.7428 5.36558C12.9889 5.11944 13.1272 4.7856 13.1272 4.4375C13.1272 4.0894 12.9889 3.75556 12.7428 3.50942C12.4966 3.26328 12.1628 3.125 11.8147 3.125C11.4666 3.125 11.1328 3.26328 10.8866 3.50942C10.6405 3.75556 10.5022 4.0894 10.5022 4.4375ZM11.3772 6.58125C10.8827 6.48084 10.4381 6.21256 10.1188 5.82186C9.79945 5.43117 9.625 4.94209 9.625 4.4375C9.625 3.93291 9.79945 3.44383 10.1188 3.05314C10.4381 2.66244 10.8827 2.39416 11.3772 2.29375V0.5H12.2522V2.29375C12.7467 2.39416 13.1913 2.66244 13.5106 3.05314C13.8299 3.44383 14.0044 3.93291 14.0044 4.4375C14.0044 4.94209 13.8299 5.43117 13.5106 5.82186C13.1913 6.21256 12.7467 6.48084 12.2522 6.58125V14.5H11.3772V6.58125Z" fill="#0D6EFD"/>
</svg>
