<svg width="16" height="17" viewBox="0 0 16 17" fill="none" xmlns="http://www.w3.org/2000/svg">
<g clip-path="url(#clip0_9637_10384)">
<rect width="16" height="16" transform="translate(0 0.5)" fill="white" fill-opacity="0.01"/>
<path d="M4.5 9.5C4.89782 9.5 5.27936 9.34196 5.56066 9.06066C5.84197 8.77936 6 8.39782 6 8C6 7.60218 5.84197 7.22064 5.56066 6.93934C5.27936 6.65804 4.89782 6.5 4.5 6.5C4.10218 6.5 3.72064 6.65804 3.43934 6.93934C3.15804 7.22064 3 7.60218 3 8C3 8.39782 3.15804 8.77936 3.43934 9.06066C3.72064 9.34196 4.10218 9.5 4.5 9.5Z" fill="white"/>
<path d="M14 13.5C14 14.0304 13.7893 14.5391 13.4142 14.9142C13.0391 15.2893 12.5304 15.5 12 15.5H2C1.46957 15.5 0.960859 15.2893 0.585786 14.9142C0.210714 14.5391 0 14.0304 0 13.5V5.5C-2.65043e-07 4.96991 0.210439 4.46151 0.585079 4.08649C0.95972 3.71148 1.46791 3.50053 1.998 3.5C1.998 2.96957 2.20871 2.46086 2.58379 2.08579C2.95886 1.71071 3.46757 1.5 3.998 1.5H13.998C14.5284 1.5 15.0371 1.71071 15.4122 2.08579C15.7873 2.46086 15.998 2.96957 15.998 3.5V11.5C15.998 12.0301 15.7876 12.5385 15.4129 12.9135C15.0383 13.2885 14.5301 13.4995 14 13.5ZM13.998 2.5H3.998C3.73278 2.5 3.47843 2.60536 3.29089 2.79289C3.10336 2.98043 2.998 3.23478 2.998 3.5H12C12.5304 3.5 13.0391 3.71071 13.4142 4.08579C13.7893 4.46086 14 4.96957 14 5.5V12.5C14.2649 12.4995 14.5187 12.3939 14.7058 12.2064C14.8929 12.0189 14.998 11.7649 14.998 11.5V3.5C14.998 3.23478 14.8926 2.98043 14.7051 2.79289C14.5176 2.60536 14.2632 2.5 13.998 2.5ZM2 4.5C1.73478 4.5 1.48043 4.60536 1.29289 4.79289C1.10536 4.98043 1 5.23478 1 5.5V13.5L3.646 11.146C3.72773 11.0646 3.83512 11.0139 3.94994 11.0026C4.06476 10.9913 4.17996 11.0201 4.276 11.084L6.936 12.857L10.646 9.147C10.7202 9.07277 10.8158 9.02376 10.9193 9.00689C11.0229 8.99002 11.1291 9.00615 11.223 9.053L13 11V5.5C13 5.23478 12.8946 4.98043 12.7071 4.79289C12.5196 4.60536 12.2652 4.5 12 4.5H2Z" fill="white"/>
</g>
<defs>
<clipPath id="clip0_9637_10384">
<rect width="16" height="16" fill="white" transform="translate(0 0.5)"/>
</clipPath>
</defs>
</svg>
