<svg width="16" height="17" viewBox="0 0 16 17" fill="none" xmlns="http://www.w3.org/2000/svg">
<g clip-path="url(#clip0_9637_10711)">
<rect width="16" height="16" transform="translate(0 0.5)" fill="white" fill-opacity="0.01"/>
<g clip-path="url(#clip1_9637_10711)">
<path d="M6 6C6 6.39782 5.84196 6.77936 5.56066 7.06066C5.27936 7.34196 4.89782 7.5 4.5 7.5C4.10218 7.5 3.72064 7.34196 3.43934 7.06066C3.15804 6.77936 3 6.39782 3 6C3 5.60218 3.15804 5.22064 3.43934 4.93934C3.72064 4.65804 4.10218 4.5 4.5 4.5C4.89782 4.5 5.27936 4.65804 5.56066 4.93934C5.84196 5.22064 6 5.60218 6 6Z" fill="white"/>
<path d="M2 1.5C1.46957 1.5 0.960859 1.71071 0.585786 2.08579C0.210714 2.46086 0 2.96957 0 3.5V13.5C0 14.0304 0.210714 14.5391 0.585786 14.9142C0.960859 15.2893 1.46957 15.5 2 15.5H14C14.5304 15.5 15.0391 15.2893 15.4142 14.9142C15.7893 14.5391 16 14.0304 16 13.5V3.5C16 2.96957 15.7893 2.46086 15.4142 2.08579C15.0391 1.71071 14.5304 1.5 14 1.5H2ZM14 2.5C14.2652 2.5 14.5196 2.60536 14.7071 2.79289C14.8946 2.98043 15 3.23478 15 3.5V10L11.223 8.053C11.1292 8.00602 11.023 7.98973 10.9195 8.00642C10.8159 8.02311 10.7203 8.07194 10.646 8.146L6.936 11.856L4.276 10.084C4.17996 10.0201 4.06476 9.9913 3.94994 10.0026C3.83512 10.0139 3.72773 10.0646 3.646 10.146L1 12.5V3.5C1 3.23478 1.10536 2.98043 1.29289 2.79289C1.48043 2.60536 1.73478 2.5 2 2.5H14Z" fill="white"/>
</g>
</g>
<defs>
<clipPath id="clip0_9637_10711">
<rect width="16" height="16" fill="white" transform="translate(0 0.5)"/>
</clipPath>
<clipPath id="clip1_9637_10711">
<rect width="16" height="16" fill="white" transform="translate(0 0.5)"/>
</clipPath>
</defs>
</svg>
