<svg width="15" height="15" viewBox="0 0 15 15" fill="none" xmlns="http://www.w3.org/2000/svg">
  <g clip-path="url(#clip0_10164_118285)">
    <path
      d="M10.775 9.54938C11.6223 8.39323 12.0018 6.95981 11.8376 5.53588C11.6733 4.11196 10.9775 2.80255 9.88933 1.86962C8.80114 0.936685 7.40082 0.449032 5.96852 0.504221C4.53622 0.55941 3.17757 1.15337 2.1644 2.16727C1.15122 3.18118 0.55823 4.54025 0.504066 5.97258C0.449902 7.40492 0.938556 8.80489 1.87227 9.89242C2.80598 10.9799 4.11589 11.6748 5.53993 11.838C6.96397 12.0012 8.39712 11.6207 9.55266 10.7726H9.55179C9.57804 10.8076 9.60604 10.8409 9.63754 10.8733L13.0063 14.242C13.1704 14.4062 13.3929 14.4985 13.625 14.4986C13.8572 14.4986 14.0798 14.4065 14.244 14.2424C14.4082 14.0784 14.5004 13.8558 14.5005 13.6237C14.5006 13.3916 14.4085 13.1689 14.2444 13.0048L10.8757 9.636C10.8444 9.60434 10.8107 9.57509 10.775 9.5485V9.54938ZM11.0008 6.18588C11.0008 6.81787 10.8763 7.44366 10.6345 8.02754C10.3926 8.61142 10.0381 9.14195 9.59124 9.58883C9.14435 10.0357 8.61383 10.3902 8.02995 10.632C7.44607 10.8739 6.82027 10.9984 6.18829 10.9984C5.5563 10.9984 4.9305 10.8739 4.34662 10.632C3.76274 10.3902 3.23222 10.0357 2.78533 9.58883C2.33845 9.14195 1.98397 8.61142 1.74212 8.02754C1.50026 7.44366 1.37579 6.81787 1.37579 6.18588C1.37579 4.90952 1.88282 3.68545 2.78533 2.78293C3.68785 1.88041 4.91193 1.37338 6.18829 1.37338C7.46464 1.37338 8.68872 1.88041 9.59124 2.78293C10.4938 3.68545 11.0008 4.90952 11.0008 6.18588Z"
      fill="#0D6EFD" />
  </g>
  <defs>
    <clipPath id="clip0_10164_118285">
      <rect width="14" height="14" fill="white" transform="translate(0.5 0.5)" />
    </clipPath>
  </defs>
</svg>