<svg width="25" height="24" viewBox="0 0 25 24" fill="none" xmlns="http://www.w3.org/2000/svg">
<g clip-path="url(#clip0_4875_28971)">
<path d="M5.205 2.025C5.34583 1.86035 5.52066 1.72817 5.71745 1.63754C5.91425 1.54691 6.12834 1.49999 6.345 1.5H19.155C19.3717 1.49999 19.5858 1.54691 19.7825 1.63754C19.9793 1.72817 20.1542 1.86035 20.295 2.025L24.2085 6.591C24.5579 6.99875 24.75 7.51802 24.75 8.055V8.4375C24.7501 9.17996 24.5182 9.9039 24.0867 10.5081C23.6553 11.1124 23.0458 11.5667 22.3435 11.8076C21.6412 12.0485 20.8812 12.064 20.1697 11.8519C19.4582 11.6398 18.8307 11.2107 18.375 10.6245C18.0422 11.0532 17.6157 11.4 17.1283 11.6384C16.6408 11.8768 16.1052 12.0005 15.5625 12C15.0198 12.0006 14.4842 11.877 13.9967 11.6385C13.5092 11.4001 13.0827 11.0532 12.75 10.6245C12.4173 11.0532 11.9908 11.4001 11.5033 11.6385C11.0158 11.877 10.4802 12.0006 9.9375 12C9.39481 12.0006 8.85919 11.877 8.37168 11.6385C7.88416 11.4001 7.45771 11.0532 7.125 10.6245C6.66929 11.2107 6.04182 11.6398 5.33031 11.8519C4.61879 12.064 3.85877 12.0485 3.15649 11.8076C2.4542 11.5667 1.84473 11.1124 1.41327 10.5081C0.981813 9.9039 0.749918 9.17996 0.75 8.4375V8.055C0.750019 7.51802 0.942085 6.99875 1.2915 6.591L5.2065 2.0235L5.205 2.025ZM7.875 8.4375C7.875 8.98451 8.0923 9.50911 8.47909 9.89591C8.86589 10.2827 9.39049 10.5 9.9375 10.5C10.4845 10.5 11.0091 10.2827 11.3959 9.89591C11.7827 9.50911 12 8.98451 12 8.4375C12 8.23859 12.079 8.04782 12.2197 7.90717C12.3603 7.76652 12.5511 7.6875 12.75 7.6875C12.9489 7.6875 13.1397 7.76652 13.2803 7.90717C13.421 8.04782 13.5 8.23859 13.5 8.4375C13.5 8.98451 13.7173 9.50911 14.1041 9.89591C14.4909 10.2827 15.0155 10.5 15.5625 10.5C16.1095 10.5 16.6341 10.2827 17.0209 9.89591C17.4077 9.50911 17.625 8.98451 17.625 8.4375C17.625 8.23859 17.704 8.04782 17.8447 7.90717C17.9853 7.76652 18.1761 7.6875 18.375 7.6875C18.5739 7.6875 18.7647 7.76652 18.9053 7.90717C19.046 8.04782 19.125 8.23859 19.125 8.4375C19.125 8.98451 19.3423 9.50911 19.7291 9.89591C20.1159 10.2827 20.6405 10.5 21.1875 10.5C21.7345 10.5 22.2591 10.2827 22.6459 9.89591C23.0327 9.50911 23.25 8.98451 23.25 8.4375V8.055C23.25 7.87624 23.1862 7.70336 23.07 7.5675L19.155 3H6.345L2.43 7.5675C2.31382 7.70336 2.24999 7.87624 2.25 8.055V8.4375C2.25 8.98451 2.4673 9.50911 2.85409 9.89591C3.24089 10.2827 3.76549 10.5 4.3125 10.5C4.85951 10.5 5.38411 10.2827 5.77091 9.89591C6.1577 9.50911 6.375 8.98451 6.375 8.4375C6.375 8.23859 6.45402 8.04782 6.59467 7.90717C6.73532 7.76652 6.92609 7.6875 7.125 7.6875C7.32391 7.6875 7.51468 7.76652 7.65533 7.90717C7.79598 8.04782 7.875 8.23859 7.875 8.4375ZM3 12.75C3.19891 12.75 3.38968 12.829 3.53033 12.9697C3.67098 13.1103 3.75 13.3011 3.75 13.5V22.5H21.75V13.5C21.75 13.3011 21.829 13.1103 21.9697 12.9697C22.1103 12.829 22.3011 12.75 22.5 12.75C22.6989 12.75 22.8897 12.829 23.0303 12.9697C23.171 13.1103 23.25 13.3011 23.25 13.5V22.5H24C24.1989 22.5 24.3897 22.579 24.5303 22.7197C24.671 22.8603 24.75 23.0511 24.75 23.25C24.75 23.4489 24.671 23.6397 24.5303 23.7803C24.3897 23.921 24.1989 24 24 24H1.5C1.30109 24 1.11032 23.921 0.96967 23.7803C0.829018 23.6397 0.75 23.4489 0.75 23.25C0.75 23.0511 0.829018 22.8603 0.96967 22.7197C1.11032 22.579 1.30109 22.5 1.5 22.5H2.25V13.5C2.25 13.3011 2.32902 13.1103 2.46967 12.9697C2.61032 12.829 2.80109 12.75 3 12.75ZM6 13.5C6.19891 13.5 6.38968 13.579 6.53033 13.7197C6.67098 13.8603 6.75 14.0511 6.75 14.25V19.5H18.75V14.25C18.75 14.0511 18.829 13.8603 18.9697 13.7197C19.1103 13.579 19.3011 13.5 19.5 13.5C19.6989 13.5 19.8897 13.579 20.0303 13.7197C20.171 13.8603 20.25 14.0511 20.25 14.25V19.5C20.25 19.8978 20.092 20.2794 19.8107 20.5607C19.5294 20.842 19.1478 21 18.75 21H6.75C6.35218 21 5.97064 20.842 5.68934 20.5607C5.40804 20.2794 5.25 19.8978 5.25 19.5V14.25C5.25 14.0511 5.32902 13.8603 5.46967 13.7197C5.61032 13.579 5.80109 13.5 6 13.5Z" fill="#212529"/>
</g>
<defs>
<clipPath id="clip0_4875_28971">
<rect width="24" height="24" fill="white" transform="translate(0.75)"/>
</clipPath>
</defs>
</svg>
