<svg width="21" height="20" viewBox="0 0 21 20" fill="none" xmlns="http://www.w3.org/2000/svg">
<path d="M20.5 10C20.5 10.1153 20.4542 10.2259 20.3727 10.3074C20.2911 10.389 20.1805 10.4348 20.0652 10.4348H10.9348V19.5652C10.9348 19.6805 10.889 19.7911 10.8074 19.8727C10.7259 19.9542 10.6153 20 10.5 20C10.3847 20 10.2741 19.9542 10.1926 19.8727C10.111 19.7911 10.0652 19.6805 10.0652 19.5652V10.4348H0.934783C0.819471 10.4348 0.708883 10.389 0.627345 10.3074C0.545807 10.2259 0.5 10.1153 0.5 10C0.5 9.88469 0.545807 9.7741 0.627345 9.69256C0.708883 9.61102 0.819471 9.56522 0.934783 9.56522H10.0652V0.434783C10.0652 0.319471 10.111 0.208883 10.1926 0.127345C10.2741 0.0458074 10.3847 0 10.5 0C10.6153 0 10.7259 0.0458074 10.8074 0.127345C10.889 0.208883 10.9348 0.319471 10.9348 0.434783V9.56522H20.0652C20.1805 9.56522 20.2911 9.61102 20.3727 9.69256C20.4542 9.7741 20.5 9.88469 20.5 10Z" fill="black"/>
</svg>
